<svg width="188" height="456" viewBox="0 0 188 456" fill="none" xmlns="http://www.w3.org/2000/svg">
<g opacity="0.4">
<path d="M54.2171 133.948H81.0435V107.158H54.2171V133.948Z" fill="#005FFF"/>
<path d="M54.0337 267.822L54.0337 294.648L80.8233 294.648L80.8233 267.822L54.0337 267.822Z" fill="#005FFF"/>
<path d="M81.0435 107.158V133.948H54.2171C54.2171 119.151 66.2267 107.158 81.0435 107.158Z" fill="#DCE9FF"/>
<path d="M80.8233 294.648L54.0337 294.648L54.0337 267.822C68.8301 267.822 80.8233 279.832 80.8233 294.648Z" fill="#DCE9FF"/>
<path d="M134.697 214.317H161.523V187.527H134.697V214.317Z" fill="#DCE9FF"/>
<path d="M107.87 214.317H134.696V187.527H107.87V214.317Z" fill="#A9C9FF"/>
<path d="M134.697 241.216H161.523V214.427H134.697V241.216Z" fill="#F2F7FF"/>
<path d="M80.4559 321.916H107.282V295.126H80.4559V321.916Z" fill="#F2F7FF"/>
<path d="M0.638039 294.575H27.4644V267.785H0.638039V294.575Z" fill="#A9C9FF"/>
<path d="M81.0438 214.317H107.87V187.527H81.0438V214.317Z" fill="#005FFF"/>
<path d="M27.097 321.475H53.9233V294.685H27.097V321.475Z" fill="#005FFF"/>
<path d="M54.2171 214.317H81.0435V187.527H54.2171V214.317Z" fill="#A9C9FF"/>
<path d="M27.097 401.733H53.9233V374.944H27.097V401.733Z" fill="#A9C9FF"/>
<path d="M27.391 214.317H54.2173V187.527H27.391V214.317Z" fill="#DCE9FF"/>
<path d="M0.270863 401.733H27.0972V374.944H0.270863V401.733Z" fill="#DCE9FF"/>
<path d="M0.564795 214.317H27.3911V187.527H0.564795V214.317Z" fill="#A9C9FF"/>
<path d="M107.87 187.527H134.696V160.737H107.87V187.527Z" fill="#A9C9FF"/>
<path d="M0.638039 267.786H27.4644V240.996H0.638039V267.786Z" fill="#A9C9FF"/>
<path d="M81.0438 187.527H107.87V160.737H81.0438V187.527Z" fill="#005FFF"/>
<path d="M27.097 294.685H53.9233V267.896H27.097V294.685Z" fill="#005FFF"/>
<path d="M84.9073 174.135L94.457 183.671L104.007 174.135L94.457 164.598L84.9073 174.135Z" fill="#A9C9FF"/>
<path d="M30.9606 281.293L40.5103 290.829L50.06 281.293L40.5103 271.756L30.9606 281.293Z" fill="#A9C9FF"/>
<path d="M97.0325 171.56C98.4553 172.981 98.4553 175.283 97.0325 176.704C95.6096 178.125 93.3047 178.125 91.8818 176.704C90.4589 175.283 90.4589 172.981 91.8818 171.56C93.3047 170.14 95.6096 170.14 97.0325 171.56Z" fill="#DCE9FF"/>
<path d="M43.0857 278.719C44.5085 280.14 44.5085 282.441 43.0857 283.862C41.6628 285.283 39.3579 285.283 37.935 283.862C36.5122 282.441 36.5122 280.14 37.935 278.719C39.3579 277.298 41.6628 277.298 43.0857 278.719Z" fill="#DCE9FF"/>
<path d="M54.2171 187.527H81.0435V160.737H54.2171V187.527Z" fill="#DCE9FF"/>
<path d="M27.097 374.944H53.9233V348.154H27.097V374.944Z" fill="#DCE9FF"/>
<path d="M27.391 187.527H54.2173V160.737H27.391V187.527Z" fill="#A9C9FF"/>
<path d="M0.270863 374.944H27.0972V348.154H0.270863V374.944Z" fill="#A9C9FF"/>
<path d="M0.564795 187.527H27.3911V160.737H0.564795V187.527Z" fill="#005FFF"/>
<path d="M8.00281 180.097H19.9502V168.166H8.00281V180.097Z" fill="#317DFF"/>
<path d="M141.92 153.522H154.296V141.162H141.92V153.522Z" fill="#317DFF"/>
<path d="M34.0502 421.417H46.4268V409.058H34.0502V421.417Z" fill="#317DFF"/>
<path d="M141.92 233.72H154.296V221.36H141.92V233.72Z" fill="#317DFF"/>
<path d="M87.6796 314.86H100.056V302.501H87.6796V314.86Z" fill="#317DFF"/>
<path d="M107.87 160.737H134.696V133.948H107.87V160.737Z" fill="#A9C9FF"/>
<path d="M-0.000144958 428.633H26.8262V401.844H-0.000144958V428.633Z" fill="#A9C9FF"/>
<path d="M0.638039 240.996H27.4644V214.206H0.638039V240.996Z" fill="#A9C9FF"/>
<path d="M81.0438 160.737H107.87V133.948H81.0438V160.737Z" fill="#DCE9FF"/>
<path d="M53.9969 241.216H80.8232V214.427H53.9969V241.216Z" fill="#DCE9FF"/>
<path d="M54.2171 160.737H81.0435V133.948H54.2171V160.737Z" fill="#A9C9FF"/>
<path d="M0.233888 321.548L0.233887 348.375L27.0235 348.375L27.0235 321.548L0.233888 321.548Z" fill="#A9C9FF"/>
<path d="M27.1708 241.216H53.9971V214.427H27.1708V241.216Z" fill="#A9C9FF"/>
<path d="M53.9969 268.116H80.8232V241.327H53.9969V268.116Z" fill="#A9C9FF"/>
<path d="M57.6511 157.308H77.6099V137.377H57.6511V157.308Z" fill="#DCE9FF"/>
<path d="M3.66309 324.982L3.66309 344.941L23.5945 344.941L23.5945 324.982L3.66309 324.982Z" fill="#DCE9FF"/>
<path d="M30.6042 237.787H50.563V217.856H30.6042V237.787Z" fill="#DCE9FF"/>
<path d="M57.4309 264.687H77.3896V244.756H57.4309V264.687Z" fill="#DCE9FF"/>
<path d="M62.5871 152.379H72.6738V142.306H62.5871V152.379Z" fill="#005FFF"/>
<path d="M8.59229 329.918L8.59229 340.005L18.6652 340.005L18.6652 329.918L8.59229 329.918Z" fill="#005FFF"/>
<path d="M35.5402 232.858H45.627V222.785H35.5402V232.858Z" fill="#005FFF"/>
<path d="M62.3669 259.758H72.4536V249.685H62.3669V259.758Z" fill="#005FFF"/>
<path d="M27.391 160.737H54.2173V133.948H27.391V160.737Z" fill="#005FFF"/>
<path d="M0.233888 294.722L0.233887 321.548L27.0235 321.548L27.0235 294.722L0.233888 294.722Z" fill="#005FFF"/>
<path d="M27.1708 268.116H53.9971V241.327H27.1708V268.116Z" fill="#005FFF"/>
<path d="M0.564795 160.737H27.3911V133.948H0.564795V160.737Z" fill="#A9C9FF"/>
<path d="M107.87 133.948H134.696V107.158H107.87V133.948Z" fill="#DCE9FF"/>
<path d="M53.9969 401.733H80.8232V374.944H53.9969V401.733Z" fill="#DCE9FF"/>
<path d="M81.0438 133.948H107.87V107.158H81.0438V133.948Z" fill="#317DFF"/>
<path d="M54.0337 294.649L54.0337 321.475L80.8233 321.475L80.8233 294.649L54.0337 294.649Z" fill="#317DFF"/>
<path d="M81.0438 107.158H82.7607C96.6288 107.158 107.87 118.384 107.87 132.233V133.948H81.0438V107.158Z" fill="#DCE9FF"/>
<path d="M80.8233 294.649L80.8233 296.365C80.8233 310.234 69.5974 321.475 55.7482 321.475L54.0337 321.475L54.0337 294.649L80.8233 294.649Z" fill="#DCE9FF"/>
<path d="M27.391 133.948H54.2173V107.158H27.391V133.948Z" fill="#DCE9FF"/>
<path d="M80.8964 268.116H107.723V241.327H80.8964V268.116Z" fill="#DCE9FF"/>
<path d="M0.564795 133.948H27.3911V107.158H0.564795V133.948Z" fill="#005FFF"/>
<path d="M161.523 214.317L134.697 187.527V214.317H161.523Z" fill="#317DFF"/>
<path d="M81.0435 187.527L54.2171 160.737V187.527H81.0435Z" fill="#317DFF"/>
<path d="M53.9233 374.944L27.097 348.154V374.944H53.9233Z" fill="#317DFF"/>
<path d="M81.0438 133.948L107.87 160.737V133.948H81.0438Z" fill="#005FFF"/>
<path d="M53.9969 214.427L80.8232 241.216V214.427H53.9969Z" fill="#005FFF"/>
<path d="M91.5597 133.948L107.87 150.236V133.948H91.5597Z" fill="#A9C9FF"/>
<path d="M64.5128 214.427L80.8232 230.715V214.427H64.5128Z" fill="#A9C9FF"/>
<path d="M94.457 187.527C87.0491 187.527 81.0438 193.524 81.0438 200.922C81.0438 208.32 87.0491 214.317 94.457 214.317C101.865 214.317 107.87 208.32 107.87 200.922C107.87 193.524 101.865 187.527 94.457 187.527Z" fill="#A9C9FF"/>
<path d="M40.5102 294.685C33.1023 294.685 27.097 300.682 27.097 308.08C27.097 315.478 33.1023 321.475 40.5102 321.475C47.9181 321.475 53.9233 315.478 53.9233 308.08C53.9233 300.682 47.9181 294.685 40.5102 294.685Z" fill="#A9C9FF"/>
<path d="M13.9782 111.016C8.70374 111.016 4.42799 115.286 4.42799 120.553C4.42799 125.82 8.70374 130.09 13.9782 130.09C19.2526 130.09 23.5283 125.82 23.5283 120.553C23.5283 115.286 19.2526 111.016 13.9782 111.016Z" fill="#A9C9FF"/>
<path d="M121.749 214.308V187.536C128.943 187.78 134.696 193.68 134.696 200.922C134.696 208.164 128.943 214.064 121.749 214.308Z" fill="#A9C9FF"/>
<path d="M14.5169 294.566V267.794C21.7106 268.038 27.4644 273.938 27.4644 281.18C27.4644 288.422 21.7106 294.322 14.5169 294.566Z" fill="#A9C9FF"/>
<path d="M107.87 214.308V187.536C115.064 187.78 120.817 193.68 120.817 200.922C120.817 208.164 115.064 214.064 107.87 214.308Z" fill="#005FFF"/>
<path d="M0.638483 294.566V267.794C7.83223 268.038 13.5859 273.938 13.5859 281.18C13.5859 288.422 7.83223 294.322 0.638483 294.566Z" fill="#005FFF"/>
<path d="M0.573162 187.527H27.3823C27.1377 194.711 21.2294 200.457 13.9777 200.457C6.72605 200.457 0.817818 194.711 0.573162 187.527Z" fill="#005FFF"/>
<path d="M0.573162 201.378H27.3823C27.1377 208.562 21.2294 214.308 13.9777 214.308C6.72605 214.308 0.817818 208.562 0.573162 201.378Z" fill="#DCE9FF"/>
<path d="M134.688 187.527H107.879C108.123 180.343 114.032 174.597 121.283 174.597C128.535 174.597 134.443 180.343 134.688 187.527Z" fill="#005FFF"/>
<path d="M27.4565 267.786H0.647392C0.892048 260.602 6.80028 254.856 14.052 254.856C21.3037 254.856 27.2119 260.602 27.4565 267.786Z" fill="#005FFF"/>
<path d="M134.688 146.878H107.879C108.123 139.694 114.032 133.948 121.283 133.948C128.535 133.948 134.443 139.694 134.688 146.878Z" fill="#005FFF"/>
<path d="M26.8179 414.773H0.0087204C0.253376 407.589 6.16161 401.844 13.4133 401.844C20.665 401.844 26.5732 407.589 26.8179 414.773Z" fill="#005FFF"/>
<path d="M27.4565 227.136H0.647392C0.892048 219.952 6.80028 214.206 14.052 214.206C21.3037 214.206 27.2119 219.952 27.4565 227.136Z" fill="#005FFF"/>
<path d="M107.879 160.737H134.688C134.443 167.921 128.535 173.667 121.283 173.667C114.032 173.667 108.123 167.921 107.879 160.737Z" fill="#005FFF"/>
<path d="M0.647392 240.996H27.4565C27.2119 248.18 21.3037 253.926 14.052 253.926C6.80028 253.926 0.892048 248.18 0.647392 240.996Z" fill="#005FFF"/>
<path d="M134.688 160.737H107.879C108.123 153.554 114.032 147.808 121.283 147.808C128.535 147.808 134.443 153.554 134.688 160.737Z" fill="#005FFF"/>
<path d="M26.8179 428.633H0.00872034C0.253376 421.449 6.16161 415.703 13.4133 415.703C20.665 415.703 26.5732 421.449 26.8179 428.633Z" fill="#005FFF"/>
<path d="M27.4565 240.996H0.647392C0.892048 233.812 6.80028 228.066 14.052 228.066C21.3037 228.066 27.2119 233.812 27.4565 240.996Z" fill="#005FFF"/>
<path d="M114.581 160.737H127.985C127.863 164.329 124.91 167.203 121.283 167.203C117.656 167.203 114.703 164.329 114.581 160.737Z" fill="#56B8FF"/>
<path d="M7.34933 240.996H20.7539C20.6316 244.588 17.6785 247.462 14.0516 247.462C10.4247 247.462 7.47165 244.588 7.34933 240.996Z" fill="#56B8FF"/>
<path d="M127.985 160.737H114.581C114.703 157.146 117.656 154.272 121.283 154.272C124.91 154.272 127.863 157.146 127.985 160.737Z" fill="#A9C9FF"/>
<path d="M20.1157 428.633H6.71114C6.83347 425.041 9.78651 422.167 13.4134 422.167C17.0404 422.167 19.9934 425.041 20.1157 428.633Z" fill="#A9C9FF"/>
<path d="M20.7539 240.996H7.34933C7.47165 237.404 10.4247 234.53 14.0516 234.53C17.6785 234.53 20.6316 237.404 20.7539 240.996Z" fill="#A9C9FF"/>
<path d="M127.985 187.536H114.581C114.703 183.944 117.656 181.07 121.283 181.07C124.91 181.072 127.863 183.944 127.985 187.536Z" fill="#A9C9FF"/>
<path d="M20.7539 267.794H7.34933C7.47165 264.202 10.4247 261.328 14.0516 261.328C17.6785 261.33 20.6316 264.202 20.7539 267.794Z" fill="#A9C9FF"/>
<path d="M94.4572 192.741C89.9331 192.741 86.2656 196.404 86.2656 200.922C86.2656 205.44 89.9331 209.102 94.4572 209.102C98.9814 209.102 102.649 205.44 102.649 200.922C102.649 196.404 98.9814 192.741 94.4572 192.741Z" fill="#317DFF"/>
<path d="M40.5105 299.9C35.9863 299.9 32.3188 303.562 32.3188 308.08C32.3188 312.598 35.9863 316.26 40.5105 316.26C45.0346 316.26 48.7021 312.598 48.7021 308.08C48.7021 303.562 45.0346 299.9 40.5105 299.9Z" fill="#317DFF"/>
<path d="M94.457 196.957C92.2642 196.957 90.4867 198.732 90.4867 200.922C90.4867 203.112 92.2642 204.887 94.457 204.887C96.6497 204.887 98.4272 203.112 98.4272 200.922C98.4272 198.732 96.6497 196.957 94.457 196.957Z" fill="#DCE9FF"/>
<path d="M40.5102 304.115C38.3174 304.115 36.5399 305.89 36.5399 308.08C36.5399 310.27 38.3174 312.045 40.5102 312.045C42.7029 312.045 44.4805 310.27 44.4805 308.08C44.4805 305.89 42.7029 304.115 40.5102 304.115Z" fill="#DCE9FF"/>
<path d="M27.3911 133.948V160.737H0.564795L27.3911 133.948Z" fill="#A9C9FF"/>
<path d="M81.0435 123.5L81.0435 133.948L91.5057 133.948L91.5057 123.5L81.0435 123.5Z" fill="#317DFF"/>
<path d="M64.4816 294.648L54.0337 294.648L54.0337 305.111L64.4816 305.111L64.4816 294.648Z" fill="#317DFF"/>
<path d="M70.5815 123.5L70.5815 133.948L81.0438 133.948L81.0438 123.5L70.5815 123.5Z" fill="#A9C9FF"/>
<path d="M64.4816 284.186L54.0337 284.186L54.0337 294.648L64.4816 294.648L64.4816 284.186Z" fill="#A9C9FF"/>
<path d="M81.0435 187.527H54.2171V214.317C69.0339 214.317 81.0435 202.323 81.0435 187.527Z" fill="#317DFF"/>
<path d="M53.9233 374.944H27.097V401.733C41.9137 401.733 53.9233 389.74 53.9233 374.944Z" fill="#317DFF"/>
<path d="M27.391 187.527H54.2173V214.317C39.4006 214.317 27.391 202.323 27.391 187.527Z" fill="#317DFF"/>
<path d="M0.270863 374.944H27.0972V401.733C12.2805 401.733 0.270863 389.74 0.270863 374.944Z" fill="#317DFF"/>
<path d="M27.391 187.527H54.2173V160.737C39.4006 160.737 27.391 172.731 27.391 187.527Z" fill="#005FFF"/>
<path d="M0.270863 374.944H27.0972V348.154C12.2805 348.154 0.270863 360.147 0.270863 374.944Z" fill="#005FFF"/>
<path d="M27.391 133.948H54.2173V107.158C39.4006 107.158 27.391 119.151 27.391 133.948Z" fill="#A9C9FF"/>
<path d="M80.8964 268.116H107.723V241.327C92.906 241.327 80.8964 253.32 80.8964 268.116Z" fill="#A9C9FF"/>
<path d="M36.4046 133.948H54.2173V116.16C44.3795 116.16 36.4046 124.124 36.4046 133.948Z" fill="#005FFF"/>
<path d="M89.91 268.116H107.723V250.328C97.8849 250.328 89.91 258.292 89.91 268.116Z" fill="#005FFF"/>
<path d="M134.697 187.527H161.523V160.737C146.706 160.737 134.697 172.731 134.697 187.527Z" fill="#005FFF"/>
<path d="M161.192 160.719L161.192 187.545L187.982 187.545C187.982 172.729 175.989 160.719 161.192 160.719Z" fill="#005FFF"/>
<path d="M188 187.509L161.174 187.509L161.174 214.298C175.991 214.298 188 202.305 188 187.509Z" fill="#005FFF"/>
<path d="M143.781 187.527H161.523V169.809C151.724 169.809 143.781 177.741 143.781 187.527Z" fill="#DCE9FF"/>
<path d="M161.192 169.804L161.192 187.545L178.91 187.545C178.91 177.746 170.978 169.804 161.192 169.804Z" fill="#DCE9FF"/>
<path d="M178.916 187.509L161.174 187.509L161.174 205.226C170.973 205.226 178.916 197.294 178.916 187.509Z" fill="#DCE9FF"/>
<path d="M151.436 187.527H161.523V177.454C155.952 177.454 151.436 181.963 151.436 187.527Z" fill="#A9C9FF"/>
<path d="M161.192 177.459L161.192 187.545L171.265 187.545C171.265 181.974 166.756 177.459 161.192 177.459Z" fill="#A9C9FF"/>
<path d="M171.261 187.509L161.174 187.509L161.174 197.582C166.745 197.582 171.261 193.072 171.261 187.509Z" fill="#A9C9FF"/>
<path d="M54.2174 172.203C45.7427 172.203 38.8727 179.064 38.8727 187.527C38.8727 195.99 45.7427 202.851 54.2174 202.851C62.692 202.851 69.562 195.99 69.562 187.527C69.562 179.064 62.692 172.203 54.2174 172.203Z" fill="#A9C9FF"/>
<path d="M27.0972 359.62C18.6226 359.62 11.7526 366.481 11.7526 374.944C11.7526 383.407 18.6226 390.267 27.0972 390.267C35.5719 390.267 42.4419 383.407 42.4419 374.944C42.4419 366.481 35.5719 359.62 27.0972 359.62Z" fill="#A9C9FF"/>
<path d="M54.2173 175.847C47.7576 175.847 42.521 181.076 42.521 187.527C42.521 193.978 47.7576 199.207 54.2173 199.207C60.677 199.207 65.9136 193.978 65.9136 187.527C65.9136 181.076 60.677 175.847 54.2173 175.847Z" fill="#0043B5"/>
<path d="M27.0972 363.264C20.6375 363.264 15.4009 368.493 15.4009 374.944C15.4009 381.395 20.6375 386.624 27.0972 386.624C33.5569 386.624 38.7935 381.395 38.7935 374.944C38.7935 368.493 33.5569 363.264 27.0972 363.264Z" fill="#0043B5"/>
<path d="M54.2174 179.812C49.9504 179.812 46.4914 183.266 46.4914 187.527C46.4914 191.788 49.9504 195.242 54.2174 195.242C58.4843 195.242 61.9434 191.788 61.9434 187.527C61.9434 183.266 58.4843 179.812 54.2174 179.812Z" fill="#DCE9FF"/>
<path d="M27.0968 367.228C22.8298 367.228 19.3708 370.683 19.3708 374.944C19.3708 379.205 22.8298 382.659 27.0968 382.659C31.3637 382.659 34.8228 379.205 34.8228 374.944C34.8228 370.683 31.3637 367.228 27.0968 367.228Z" fill="#DCE9FF"/>
<path d="M35.7605 152.379H45.8472V142.306H35.7605V152.379Z" fill="#A9C9FF"/>
<path d="M8.59229 303.092L8.59229 313.179L18.6652 313.179L18.6652 303.092L8.59229 303.092Z" fill="#A9C9FF"/>
<path d="M35.5402 259.758H45.627V249.685H35.5402V259.758Z" fill="#A9C9FF"/>
<path d="M13.978 116.052C11.489 116.052 9.47123 118.067 9.47123 120.553C9.47123 123.039 11.489 125.054 13.978 125.054C16.4671 125.054 18.4849 123.039 18.4849 120.553C18.4849 118.067 16.4671 116.052 13.978 116.052Z" fill="#DCE9FF"/>
<path d="M13.9779 160.737H27.3911V147.343H13.9779V160.737Z" fill="#A9C9FF"/>
<path d="M89.2724 152.523H99.6445V142.165H89.2724V152.523Z" fill="#005FFF"/>
<path d="M62.225 233.002H72.5972V222.644H62.225V233.002Z" fill="#005FFF"/>
<path d="M116.545 125.285L126.024 115.819C128.481 118.444 128.425 122.563 125.863 125.122C123.296 127.686 119.173 127.739 116.545 125.285Z" fill="#56B8FF"/>
<path d="M126.022 115.821L116.543 125.287C114.085 122.662 114.141 118.543 116.704 115.984C119.27 113.421 123.393 113.367 126.022 115.821Z" fill="#A9C9FF"/>
<path d="M62.6719 393.071L72.1513 383.604C74.6086 386.23 74.5528 390.349 71.9903 392.908C69.4236 395.471 65.3009 395.525 62.6719 393.071Z" fill="#56B8FF"/>
<path d="M72.1489 383.606L62.6696 393.073C60.2123 390.447 60.2681 386.328 62.8305 383.769C65.3973 381.206 69.5199 381.153 72.1489 383.606Z" fill="#A9C9FF"/>
<path d="M27.097 107.158H53.9233V80.3688H27.097V107.158Z" fill="#DCE9FF"/>
<path d="M80.6029 241.327H107.429V214.537H80.6029V241.327Z" fill="#DCE9FF"/>
<path d="M0.270851 107.158H27.0972V80.3688H0.270851V107.158Z" fill="#A9C9FF"/>
<path d="M0.270851 80.3688H27.0972V53.5793H0.270851V80.3688Z" fill="#A9C9FF"/>
<path d="M0.270851 53.5792H27.0972V26.7897H0.270851V53.5792Z" fill="#A9C9FF"/>
<path d="M0.270851 26.7896H27.0972V1.33514e-05H0.270851V26.7896Z" fill="#DCE9FF"/>
<path d="M0.270851 455.533H27.0972V428.743H0.270851V455.533Z" fill="#DCE9FF"/>
<path d="M53.9233 107.158L27.097 80.3688V107.158H53.9233Z" fill="#317DFF"/>
<path d="M107.429 241.327L80.6029 214.537V241.327H107.429Z" fill="#317DFF"/>
<path d="M14.1497 107.15V80.3773C21.3435 80.6216 27.0972 86.5218 27.0972 93.7635C27.0972 101.005 21.3435 106.905 14.1497 107.15Z" fill="#A9C9FF"/>
<path d="M0.270807 107.15V80.3773C7.46455 80.6216 13.2183 86.5218 13.2183 93.7635C13.2183 101.005 7.46455 106.905 0.270807 107.15Z" fill="#005FFF"/>
<path d="M27.0889 80.3688H0.279716C0.524372 73.1849 6.4326 67.4391 13.6843 67.4391C20.936 67.4391 26.8442 73.1849 27.0889 80.3688Z" fill="#005FFF"/>
<path d="M27.0889 39.7193H0.279716C0.524372 32.5354 6.4326 26.7896 13.6843 26.7896C20.936 26.7896 26.8442 32.5354 27.0889 39.7193Z" fill="#005FFF"/>
<path d="M0.279716 53.5792H27.0889C26.8442 60.7631 20.936 66.5089 13.6843 66.5089C6.4326 66.5089 0.524372 60.7631 0.279716 53.5792Z" fill="#005FFF"/>
<path d="M27.0889 53.5792H0.279716C0.524372 46.3953 6.4326 40.6495 13.6843 40.6495C20.936 40.6495 26.8442 46.3953 27.0889 53.5792Z" fill="#005FFF"/>
<path d="M6.98165 53.5792H20.3862C20.2639 57.1711 17.3109 60.0451 13.6839 60.0451C10.057 60.0451 7.10398 57.1711 6.98165 53.5792Z" fill="#56B8FF"/>
<path d="M20.3862 53.5792H6.98165C7.10398 49.9873 10.057 47.1133 13.6839 47.1133C17.3109 47.1133 20.2639 49.9873 20.3862 53.5792Z" fill="#A9C9FF"/>
<path d="M20.3862 80.3774H6.98165C7.10398 76.7855 10.057 73.9115 13.6839 73.9115C17.3109 73.9137 20.2639 76.7855 20.3862 80.3774Z" fill="#A9C9FF"/>
<path d="M27.097 80.3688H53.9233V53.5793C39.1066 53.5793 27.097 65.5724 27.097 80.3688Z" fill="#005FFF"/>
<path d="M27.097 348.375H53.9233V321.585C39.1066 321.585 27.097 333.578 27.097 348.375Z" fill="#005FFF"/>
<path d="M36.1815 80.3688H53.9233V62.6513C44.1242 62.6513 36.1815 70.5831 36.1815 80.3688Z" fill="#DCE9FF"/>
<path d="M36.1815 348.375H53.9233V330.657C44.1242 330.657 36.1815 338.589 36.1815 348.375Z" fill="#DCE9FF"/>
<path d="M43.8366 80.3688H53.9233V70.296C48.3521 70.296 43.8366 74.8052 43.8366 80.3688Z" fill="#A9C9FF"/>
<path d="M43.8366 348.375H53.9233V338.302C48.3521 338.302 43.8366 342.811 43.8366 348.375Z" fill="#A9C9FF"/>
<path d="M8.94587 18.1269L18.4252 8.66054C20.8825 11.2859 20.8267 15.4051 18.2643 17.964C15.6975 20.5272 11.5749 20.5808 8.94587 18.1269Z" fill="#56B8FF"/>
<path d="M18.4224 8.66259L8.94302 18.129C6.48573 15.5036 6.54152 11.3844 9.10397 8.82547C11.6707 6.26224 15.7934 6.20867 18.4224 8.66259Z" fill="#A9C9FF"/>
<path d="M8.94587 446.87L18.4252 437.404C20.8825 440.029 20.8267 444.148 18.2643 446.707C15.6975 449.271 11.5749 449.324 8.94587 446.87Z" fill="#56B8FF"/>
<path d="M18.4224 437.406L8.94302 446.872C6.48573 444.247 6.54152 440.128 9.10397 437.569C11.6707 435.006 15.7934 434.952 18.4224 437.406Z" fill="#A9C9FF"/>
<path d="M116.471 259.454L125.951 249.987C128.408 252.613 128.352 256.732 125.79 259.291C123.223 261.854 119.1 261.907 116.471 259.454Z" fill="#56B8FF"/>
<path d="M125.948 249.989L116.469 259.456C114.012 256.83 114.067 252.711 116.63 250.152C119.197 247.589 123.319 247.535 125.948 249.989Z" fill="#A9C9FF"/>
</g>
</svg>
