<svg width="271" height="658" viewBox="0 0 271 658" fill="none" xmlns="http://www.w3.org/2000/svg">
<g opacity="0.4">
<path d="M193.039 193.277H154.331V154.622H193.039V193.277Z" fill="#005FFF"/>
<path d="M193.304 386.448L193.304 425.157L154.648 425.157L154.648 386.448L193.304 386.448Z" fill="#005FFF"/>
<path d="M154.331 154.622V193.277H193.039C193.039 171.927 175.71 154.622 154.331 154.622Z" fill="#DCE9FF"/>
<path d="M154.648 425.157L193.304 425.157L193.304 386.448C171.954 386.448 154.648 403.778 154.648 425.157Z" fill="#DCE9FF"/>
<path d="M76.9131 309.244H38.2046V270.588H76.9131V309.244Z" fill="#DCE9FF"/>
<path d="M115.623 309.244H76.9141V270.588H115.623V309.244Z" fill="#A9C9FF"/>
<path d="M76.9131 348.058H38.2046V309.403H76.9131V348.058Z" fill="#F2F7FF"/>
<path d="M155.179 464.502H116.47V425.846H155.179V464.502Z" fill="#F2F7FF"/>
<path d="M270.351 425.051H231.642V386.396H270.351V425.051Z" fill="#A9C9FF"/>
<path d="M154.331 309.244H115.623V270.588H154.331V309.244Z" fill="#005FFF"/>
<path d="M232.172 463.866H193.463V425.21H232.172V463.866Z" fill="#005FFF"/>
<path d="M193.039 309.244H154.331V270.588H193.039V309.244Z" fill="#A9C9FF"/>
<path d="M232.172 579.673H193.463V541.017H232.172V579.673Z" fill="#A9C9FF"/>
<path d="M231.748 309.244H193.039V270.588H231.748V309.244Z" fill="#DCE9FF"/>
<path d="M270.88 579.673H232.172V541.017H270.88V579.673Z" fill="#DCE9FF"/>
<path d="M270.457 309.244H231.748V270.588H270.457V309.244Z" fill="#A9C9FF"/>
<path d="M115.623 270.588H76.9141V231.933H115.623V270.588Z" fill="#A9C9FF"/>
<path d="M270.351 386.396H231.642V347.74H270.351V386.396Z" fill="#A9C9FF"/>
<path d="M154.331 270.588H115.623V231.933H154.331V270.588Z" fill="#005FFF"/>
<path d="M232.172 425.21H193.463V386.555H232.172V425.21Z" fill="#005FFF"/>
<path d="M148.756 251.264L134.976 265.024L121.197 251.264L134.976 237.503L148.756 251.264Z" fill="#A9C9FF"/>
<path d="M226.596 405.886L212.817 419.646L199.037 405.886L212.817 392.125L226.596 405.886Z" fill="#A9C9FF"/>
<path d="M131.26 247.55C129.207 249.6 129.207 252.921 131.26 254.971C133.313 257.022 136.639 257.022 138.692 254.971C140.745 252.921 140.745 249.6 138.692 247.55C136.639 245.499 133.313 245.499 131.26 247.55Z" fill="#DCE9FF"/>
<path d="M209.101 402.172C207.048 404.222 207.048 407.543 209.101 409.593C211.154 411.644 214.48 411.644 216.533 409.593C218.586 407.543 218.586 404.222 216.533 402.172C214.48 400.121 211.154 400.121 209.101 402.172Z" fill="#DCE9FF"/>
<path d="M193.039 270.588H154.331V231.933H193.039V270.588Z" fill="#DCE9FF"/>
<path d="M232.172 541.017H193.463V502.362H232.172V541.017Z" fill="#DCE9FF"/>
<path d="M231.748 270.588H193.039V231.933H231.748V270.588Z" fill="#A9C9FF"/>
<path d="M270.88 541.017H232.172V502.362H270.88V541.017Z" fill="#A9C9FF"/>
<path d="M270.457 270.588H231.748V231.933H270.457V270.588Z" fill="#005FFF"/>
<path d="M259.724 259.867H242.484V242.651H259.724V259.867Z" fill="#317DFF"/>
<path d="M66.4904 221.521H48.6318V203.687H66.4904V221.521Z" fill="#317DFF"/>
<path d="M222.138 608.075H204.28V590.241H222.138V608.075Z" fill="#317DFF"/>
<path d="M66.4904 337.241H48.6318V319.407H66.4904V337.241Z" fill="#317DFF"/>
<path d="M144.755 454.321H126.896V436.487H144.755V454.321Z" fill="#317DFF"/>
<path d="M115.623 231.933H76.9141V193.277H115.623V231.933Z" fill="#A9C9FF"/>
<path d="M271.271 618.487H232.562V579.832H271.271V618.487Z" fill="#A9C9FF"/>
<path d="M270.351 347.74H231.642V309.085H270.351V347.74Z" fill="#A9C9FF"/>
<path d="M154.331 231.933H115.623V193.277H154.331V231.933Z" fill="#DCE9FF"/>
<path d="M193.357 348.058H154.648V309.403H193.357V348.058Z" fill="#DCE9FF"/>
<path d="M193.039 231.933H154.331V193.277H193.039V231.933Z" fill="#A9C9FF"/>
<path d="M270.933 463.972L270.933 502.68L232.278 502.68L232.278 463.972L270.933 463.972Z" fill="#A9C9FF"/>
<path d="M232.065 348.058H193.357V309.403H232.065V348.058Z" fill="#A9C9FF"/>
<path d="M193.357 386.873H154.648V348.217H193.357V386.873Z" fill="#A9C9FF"/>
<path d="M188.084 226.985H159.285V198.225H188.084V226.985Z" fill="#DCE9FF"/>
<path d="M265.985 468.926L265.985 497.726L237.226 497.726L237.226 468.926L265.985 468.926Z" fill="#DCE9FF"/>
<path d="M227.112 343.111H198.312V314.351H227.112V343.111Z" fill="#DCE9FF"/>
<path d="M188.402 381.925H159.603V353.165H188.402V381.925Z" fill="#DCE9FF"/>
<path d="M180.962 219.872H166.408V205.338H180.962V219.872Z" fill="#005FFF"/>
<path d="M258.873 476.049L258.873 490.603L244.338 490.603L244.338 476.049L258.873 476.049Z" fill="#005FFF"/>
<path d="M219.989 335.998H205.435V321.463H219.989V335.998Z" fill="#005FFF"/>
<path d="M181.28 374.812H166.726V360.278H181.28V374.812Z" fill="#005FFF"/>
<path d="M231.748 231.933H193.039V193.277H231.748V231.933Z" fill="#005FFF"/>
<path d="M270.933 425.263L270.933 463.972L232.278 463.972L232.278 425.263L270.933 425.263Z" fill="#005FFF"/>
<path d="M232.065 386.873H193.357V348.217H232.065V386.873Z" fill="#005FFF"/>
<path d="M270.457 231.933H231.748V193.277H270.457V231.933Z" fill="#A9C9FF"/>
<path d="M115.623 193.277H76.9141V154.622H115.623V193.277Z" fill="#DCE9FF"/>
<path d="M193.357 579.673H154.648V541.017H193.357V579.673Z" fill="#DCE9FF"/>
<path d="M154.331 193.277H115.623V154.622H154.331V193.277Z" fill="#317DFF"/>
<path d="M193.304 425.157L193.304 463.866L154.648 463.866L154.648 425.157L193.304 425.157Z" fill="#317DFF"/>
<path d="M154.331 154.622H151.854C131.843 154.622 115.623 170.82 115.623 190.803V193.277H154.331V154.622Z" fill="#DCE9FF"/>
<path d="M154.648 425.157L154.648 427.635C154.648 447.645 170.846 463.866 190.83 463.866L193.304 463.866L193.304 425.157L154.648 425.157Z" fill="#DCE9FF"/>
<path d="M231.748 193.277H193.039V154.622H231.748V193.277Z" fill="#DCE9FF"/>
<path d="M154.543 386.873H115.834V348.217H154.543V386.873Z" fill="#DCE9FF"/>
<path d="M270.457 193.277H231.748V154.622H270.457V193.277Z" fill="#005FFF"/>
<path d="M38.2046 309.244L76.9131 270.588V309.244H38.2046Z" fill="#317DFF"/>
<path d="M154.331 270.588L193.039 231.933V270.588H154.331Z" fill="#317DFF"/>
<path d="M193.463 541.017L232.172 502.362V541.017H193.463Z" fill="#317DFF"/>
<path d="M154.331 193.277L115.623 231.933V193.277H154.331Z" fill="#005FFF"/>
<path d="M193.357 309.403L154.648 348.058V309.403H193.357Z" fill="#005FFF"/>
<path d="M139.157 193.277L115.623 216.78V193.277H139.157Z" fill="#A9C9FF"/>
<path d="M178.183 309.403L154.648 332.905V309.403H178.183Z" fill="#A9C9FF"/>
<path d="M134.977 270.588C145.666 270.588 154.331 279.242 154.331 289.916C154.331 300.591 145.666 309.244 134.977 309.244C124.288 309.244 115.623 300.591 115.623 289.916C115.623 279.242 124.288 270.588 134.977 270.588Z" fill="#A9C9FF"/>
<path d="M212.818 425.21C223.507 425.21 232.172 433.864 232.172 444.538C232.172 455.212 223.507 463.866 212.818 463.866C202.129 463.866 193.463 455.212 193.463 444.538C193.463 433.864 202.129 425.21 212.818 425.21Z" fill="#A9C9FF"/>
<path d="M251.102 160.188C258.712 160.188 264.882 166.349 264.882 173.949C264.882 181.55 258.712 187.711 251.102 187.711C243.491 187.711 237.321 181.55 237.321 173.949C237.321 166.349 243.491 160.188 251.102 160.188Z" fill="#A9C9FF"/>
<path d="M95.5963 309.231V270.601C85.2163 270.953 76.9141 279.467 76.9141 289.916C76.9141 300.365 85.2163 308.879 95.5963 309.231Z" fill="#A9C9FF"/>
<path d="M250.324 425.039V386.408C239.944 386.76 231.642 395.274 231.642 405.723C231.642 416.173 239.944 424.686 250.324 425.039Z" fill="#A9C9FF"/>
<path d="M115.622 309.231V270.601C105.242 270.953 96.9395 279.467 96.9395 289.916C96.9395 300.365 105.242 308.879 115.622 309.231Z" fill="#005FFF"/>
<path d="M270.35 425.039V386.408C259.97 386.76 251.667 395.274 251.667 405.723C251.667 416.173 259.97 424.686 270.35 425.039Z" fill="#005FFF"/>
<path d="M270.444 270.588H231.76C232.113 280.954 240.638 289.245 251.102 289.245C261.565 289.245 270.09 280.954 270.444 270.588Z" fill="#005FFF"/>
<path d="M270.444 290.575H231.76C232.113 300.941 240.638 309.231 251.102 309.231C261.565 309.231 270.09 300.941 270.444 290.575Z" fill="#DCE9FF"/>
<path d="M76.9258 270.588H115.609C115.256 260.223 106.731 251.932 96.2676 251.932C85.804 251.932 77.2788 260.223 76.9258 270.588Z" fill="#005FFF"/>
<path d="M231.653 386.396H270.337C269.984 376.03 261.459 367.739 250.995 367.739C240.531 367.739 232.006 376.03 231.653 386.396Z" fill="#005FFF"/>
<path d="M76.9258 211.934H115.609C115.256 201.568 106.731 193.277 96.2676 193.277C85.804 193.277 77.2788 201.568 76.9258 211.934Z" fill="#005FFF"/>
<path d="M232.574 598.489H271.258C270.905 588.123 262.38 579.832 251.916 579.832C241.452 579.832 232.927 588.123 232.574 598.489Z" fill="#005FFF"/>
<path d="M231.653 327.741H270.337C269.984 317.375 261.459 309.085 250.995 309.085C240.531 309.085 232.006 317.375 231.653 327.741Z" fill="#005FFF"/>
<path d="M115.609 231.933H76.9258C77.2788 242.299 85.804 250.589 96.2676 250.589C106.731 250.589 115.256 242.299 115.609 231.933Z" fill="#005FFF"/>
<path d="M270.337 347.74H231.653C232.006 358.106 240.531 366.397 250.995 366.397C261.459 366.397 269.984 358.106 270.337 347.74Z" fill="#005FFF"/>
<path d="M76.9258 231.933H115.609C115.256 221.567 106.731 213.276 96.2676 213.276C85.804 213.276 77.2788 221.567 76.9258 231.933Z" fill="#005FFF"/>
<path d="M232.574 618.487H271.258C270.905 608.122 262.38 599.831 251.916 599.831C241.452 599.831 232.927 608.122 232.574 618.487Z" fill="#005FFF"/>
<path d="M231.653 347.74H270.337C269.984 337.374 261.459 329.083 250.995 329.083C240.531 329.083 232.006 337.374 231.653 347.74Z" fill="#005FFF"/>
<path d="M105.939 231.933H86.5967C86.7732 237.116 91.0342 241.263 96.2676 241.263C101.501 241.263 105.762 237.116 105.939 231.933Z" fill="#56B8FF"/>
<path d="M260.666 347.74H241.324C241.501 352.923 245.762 357.07 250.995 357.07C256.229 357.07 260.49 352.923 260.666 347.74Z" fill="#56B8FF"/>
<path d="M86.5967 231.933H105.939C105.762 226.75 101.501 222.603 96.2676 222.603C91.0342 222.603 86.7732 226.75 86.5967 231.933Z" fill="#A9C9FF"/>
<path d="M242.245 618.487H261.587C261.41 613.305 257.149 609.158 251.916 609.158C246.683 609.158 242.422 613.305 242.245 618.487Z" fill="#A9C9FF"/>
<path d="M241.324 347.74H260.666C260.49 342.557 256.229 338.41 250.995 338.41C245.762 338.41 241.501 342.557 241.324 347.74Z" fill="#A9C9FF"/>
<path d="M86.5967 270.601H105.939C105.762 265.418 101.501 261.271 96.2676 261.271C91.0342 261.274 86.7732 265.418 86.5967 270.601Z" fill="#A9C9FF"/>
<path d="M241.324 386.408H260.666C260.49 381.225 256.229 377.078 250.995 377.078C245.762 377.081 241.501 381.225 241.324 386.408Z" fill="#A9C9FF"/>
<path d="M134.976 278.112C141.504 278.112 146.796 283.397 146.796 289.916C146.796 296.435 141.504 301.72 134.976 301.72C128.448 301.72 123.156 296.435 123.156 289.916C123.156 283.397 128.448 278.112 134.976 278.112Z" fill="#317DFF"/>
<path d="M212.817 432.734C219.345 432.734 224.637 438.019 224.637 444.538C224.637 451.057 219.345 456.342 212.817 456.342C206.289 456.342 200.997 451.057 200.997 444.538C200.997 438.019 206.289 432.734 212.817 432.734Z" fill="#317DFF"/>
<path d="M134.976 284.195C138.14 284.195 140.705 286.756 140.705 289.916C140.705 293.076 138.14 295.637 134.976 295.637C131.812 295.637 129.248 293.076 129.248 289.916C129.248 286.756 131.812 284.195 134.976 284.195Z" fill="#DCE9FF"/>
<path d="M212.818 438.817C215.982 438.817 218.547 441.378 218.547 444.538C218.547 447.697 215.982 450.259 212.818 450.259C209.654 450.259 207.089 447.697 207.089 444.538C207.089 441.378 209.654 438.817 212.818 438.817Z" fill="#DCE9FF"/>
<path d="M231.748 193.277V231.933H270.457L231.748 193.277Z" fill="#A9C9FF"/>
<path d="M154.331 178.202L154.331 193.277L139.234 193.277L139.234 178.202L154.331 178.202Z" fill="#317DFF"/>
<path d="M178.228 425.157L193.304 425.157L193.304 440.253L178.228 440.253L178.228 425.157Z" fill="#317DFF"/>
<path d="M169.427 178.202L169.427 193.277L154.331 193.277L154.331 178.202L169.427 178.202Z" fill="#A9C9FF"/>
<path d="M178.228 410.061L193.304 410.061L193.304 425.157L178.228 425.157L178.228 410.061Z" fill="#A9C9FF"/>
<path d="M154.331 270.588H193.039V309.244C171.66 309.244 154.331 291.939 154.331 270.588Z" fill="#317DFF"/>
<path d="M193.463 541.017H232.172V579.673C210.792 579.673 193.463 562.368 193.463 541.017Z" fill="#317DFF"/>
<path d="M231.748 270.588H193.039V309.244C214.419 309.244 231.748 291.939 231.748 270.588Z" fill="#317DFF"/>
<path d="M270.88 541.017H232.172V579.673C253.551 579.673 270.88 562.368 270.88 541.017Z" fill="#317DFF"/>
<path d="M231.748 270.588H193.039V231.933C214.419 231.933 231.748 249.238 231.748 270.588Z" fill="#005FFF"/>
<path d="M270.88 541.017H232.172V502.362C253.551 502.362 270.88 519.667 270.88 541.017Z" fill="#005FFF"/>
<path d="M231.748 193.277H193.039V154.622C214.419 154.622 231.748 171.927 231.748 193.277Z" fill="#A9C9FF"/>
<path d="M154.543 386.873H115.834V348.217C137.214 348.217 154.543 365.523 154.543 386.873Z" fill="#A9C9FF"/>
<path d="M218.741 193.277H193.039V167.61C207.234 167.61 218.741 179.102 218.741 193.277Z" fill="#005FFF"/>
<path d="M141.537 386.873H115.834V361.206C130.03 361.206 141.537 372.697 141.537 386.873Z" fill="#005FFF"/>
<path d="M76.9131 270.588H38.2046V231.933C59.5841 231.933 76.9131 249.238 76.9131 270.588Z" fill="#005FFF"/>
<path d="M38.6821 231.906L38.6821 270.615L0.0266685 270.615C0.0266676 249.235 17.3319 231.906 38.6821 231.906Z" fill="#005FFF"/>
<path d="M1.14441e-05 270.562L38.7085 270.562L38.7085 309.217C17.329 309.217 1.33106e-05 291.912 1.14441e-05 270.562Z" fill="#005FFF"/>
<path d="M63.8048 270.588H38.2046V245.023C52.344 245.023 63.8048 256.468 63.8048 270.588Z" fill="#DCE9FF"/>
<path d="M38.6821 245.015L38.6821 270.615L13.117 270.615C13.117 256.475 24.5621 245.015 38.6821 245.015Z" fill="#DCE9FF"/>
<path d="M13.1083 270.562L38.7085 270.562L38.7085 296.127C24.5691 296.127 13.1083 284.682 13.1083 270.562Z" fill="#DCE9FF"/>
<path d="M52.759 270.588H38.2046V256.054C46.2436 256.054 52.759 262.56 52.759 270.588Z" fill="#A9C9FF"/>
<path d="M38.6821 256.06L38.6821 270.615L24.1477 270.615C24.1477 262.576 30.6542 256.06 38.6821 256.06Z" fill="#A9C9FF"/>
<path d="M24.1541 270.562L38.7085 270.562L38.7085 285.096C30.6695 285.096 24.1541 278.59 24.1541 270.562Z" fill="#A9C9FF"/>
<path d="M193.039 248.477C205.267 248.477 215.18 258.377 215.18 270.588C215.18 282.8 205.267 292.699 193.039 292.699C180.811 292.699 170.898 282.8 170.898 270.588C170.898 258.377 180.811 248.477 193.039 248.477Z" fill="#A9C9FF"/>
<path d="M232.172 518.907C244.4 518.907 254.313 528.806 254.313 541.017C254.313 553.229 244.4 563.128 232.172 563.128C219.944 563.128 210.031 553.229 210.031 541.017C210.031 528.806 219.944 518.907 232.172 518.907Z" fill="#A9C9FF"/>
<path d="M193.039 253.735C202.36 253.735 209.916 261.28 209.916 270.588C209.916 279.897 202.36 287.442 193.039 287.442C183.718 287.442 176.162 279.897 176.162 270.588C176.162 261.28 183.718 253.735 193.039 253.735Z" fill="#0043B5"/>
<path d="M232.171 524.164C241.492 524.164 249.048 531.709 249.048 541.017C249.048 550.326 241.492 557.871 232.171 557.871C222.85 557.871 215.294 550.326 215.294 541.017C215.294 531.709 222.85 524.164 232.171 524.164Z" fill="#0043B5"/>
<path d="M193.039 259.455C199.196 259.455 204.187 264.44 204.187 270.588C204.187 276.737 199.196 281.721 193.039 281.721C186.882 281.721 181.891 276.737 181.891 270.588C181.891 264.44 186.882 259.455 193.039 259.455Z" fill="#DCE9FF"/>
<path d="M232.172 529.885C238.329 529.885 243.32 534.869 243.32 541.018C243.32 547.166 238.329 552.15 232.172 552.15C226.015 552.15 221.024 547.166 221.024 541.018C221.024 534.869 226.015 529.885 232.172 529.885Z" fill="#DCE9FF"/>
<path d="M219.671 219.872H205.117V205.338H219.671V219.872Z" fill="#A9C9FF"/>
<path d="M258.873 437.34L258.873 451.895L244.338 451.895L244.338 437.34L258.873 437.34Z" fill="#A9C9FF"/>
<path d="M219.989 374.812H205.435V360.278H219.989V374.812Z" fill="#A9C9FF"/>
<path d="M251.102 167.455C254.693 167.455 257.605 170.363 257.605 173.95C257.605 177.536 254.693 180.444 251.102 180.444C247.51 180.444 244.599 177.536 244.599 173.95C244.599 170.363 247.51 167.455 251.102 167.455Z" fill="#DCE9FF"/>
<path d="M251.102 231.933H231.748V212.605H251.102V231.933Z" fill="#A9C9FF"/>
<path d="M142.458 220.079H127.492V205.134H142.458V220.079Z" fill="#005FFF"/>
<path d="M181.485 336.205H166.519V321.259H181.485V336.205Z" fill="#005FFF"/>
<path d="M103.105 180.778L89.427 167.119C85.8813 170.907 85.9618 176.85 89.6593 180.543C93.3629 184.241 99.3116 184.319 103.105 180.778Z" fill="#56B8FF"/>
<path d="M89.4302 167.122L103.108 180.781C106.654 176.993 106.573 171.049 102.876 167.357C99.1723 163.658 93.2236 163.581 89.4302 167.122Z" fill="#A9C9FF"/>
<path d="M180.84 567.173L167.162 553.514C163.616 557.302 163.697 563.246 167.394 566.938C171.098 570.637 177.046 570.714 180.84 567.173Z" fill="#56B8FF"/>
<path d="M167.165 553.517L180.843 567.176C184.389 563.388 184.308 557.444 180.611 553.752C176.907 550.054 170.958 549.976 167.165 553.517Z" fill="#A9C9FF"/>
<path d="M232.172 154.622H193.463V115.966H232.172V154.622Z" fill="#DCE9FF"/>
<path d="M154.967 348.217H116.258V309.562H154.967V348.217Z" fill="#DCE9FF"/>
<path d="M270.88 154.622H232.172V115.966H270.88V154.622Z" fill="#A9C9FF"/>
<path d="M270.88 115.967H232.172V77.3111H270.88V115.967Z" fill="#A9C9FF"/>
<path d="M270.88 77.3112H232.172V38.6557H270.88V77.3112Z" fill="#A9C9FF"/>
<path d="M270.88 38.6555H232.172V5.72205e-05H270.88V38.6555Z" fill="#DCE9FF"/>
<path d="M270.88 657.302H232.172V618.647H270.88V657.302Z" fill="#DCE9FF"/>
<path d="M193.463 154.622L232.172 115.966V154.622H193.463Z" fill="#317DFF"/>
<path d="M116.258 348.217L154.967 309.562V348.217H116.258Z" fill="#317DFF"/>
<path d="M250.854 154.609V115.979C240.474 116.331 232.172 124.845 232.172 135.294C232.172 145.743 240.474 154.257 250.854 154.609Z" fill="#A9C9FF"/>
<path d="M270.88 154.609V115.979C260.5 116.331 252.198 124.845 252.198 135.294C252.198 145.743 260.5 154.257 270.88 154.609Z" fill="#005FFF"/>
<path d="M232.184 115.967H270.867C270.514 105.601 261.989 97.3099 251.525 97.3099C241.062 97.3099 232.537 105.601 232.184 115.967Z" fill="#005FFF"/>
<path d="M232.184 57.3121H270.867C270.514 46.9463 261.989 38.6555 251.525 38.6555C241.062 38.6555 232.537 46.9463 232.184 57.3121Z" fill="#005FFF"/>
<path d="M270.867 77.3109H232.184C232.537 87.6767 241.062 95.9675 251.525 95.9675C261.989 95.9675 270.514 87.6767 270.867 77.3109Z" fill="#005FFF"/>
<path d="M232.184 77.3112H270.867C270.514 66.9453 261.989 58.6545 251.525 58.6545C241.062 58.6545 232.537 66.9453 232.184 77.3112Z" fill="#005FFF"/>
<path d="M261.197 77.311H241.855C242.032 82.4939 246.293 86.6409 251.526 86.6409C256.76 86.6409 261.021 82.4939 261.197 77.311Z" fill="#56B8FF"/>
<path d="M241.855 77.3112H261.197C261.021 72.1282 256.76 67.9813 251.526 67.9813C246.293 67.9813 242.032 72.1282 241.855 77.3112Z" fill="#A9C9FF"/>
<path d="M241.855 115.979H261.197C261.021 110.796 256.76 106.649 251.526 106.649C246.293 106.652 242.032 110.796 241.855 115.979Z" fill="#A9C9FF"/>
<path d="M232.172 115.967H193.463V77.3111C214.843 77.3111 232.172 94.6164 232.172 115.967Z" fill="#005FFF"/>
<path d="M232.172 502.68H193.463V464.025C214.843 464.025 232.172 481.33 232.172 502.68Z" fill="#005FFF"/>
<path d="M219.064 115.967H193.463V90.4014C207.603 90.4014 219.064 101.846 219.064 115.967Z" fill="#DCE9FF"/>
<path d="M219.064 502.68H193.463V477.115C207.603 477.115 219.064 488.56 219.064 502.68Z" fill="#DCE9FF"/>
<path d="M208.018 115.967H193.463V101.432C201.502 101.432 208.018 107.939 208.018 115.967Z" fill="#A9C9FF"/>
<path d="M208.018 502.68H193.463V488.146C201.502 488.146 208.018 494.652 208.018 502.68Z" fill="#A9C9FF"/>
<path d="M258.363 26.1559L244.685 12.4966C241.139 16.2848 241.22 22.2285 244.917 25.9209C248.621 29.6194 254.569 29.6967 258.363 26.1559Z" fill="#56B8FF"/>
<path d="M244.689 12.4996L258.367 26.1589C261.913 22.3707 261.832 16.427 258.135 12.7347C254.431 9.03611 248.482 8.9588 244.689 12.4996Z" fill="#A9C9FF"/>
<path d="M258.363 644.802L244.685 631.143C241.139 634.931 241.22 640.875 244.917 644.567C248.621 648.266 254.569 648.343 258.363 644.802Z" fill="#56B8FF"/>
<path d="M244.689 631.146L258.367 644.805C261.913 641.017 261.832 635.073 258.135 631.381C254.431 627.682 248.482 627.605 244.689 631.146Z" fill="#A9C9FF"/>
<path d="M103.211 374.373L89.5334 360.714C85.9877 364.502 86.0683 370.446 89.7657 374.138C93.4693 377.837 99.418 377.914 103.211 374.373Z" fill="#56B8FF"/>
<path d="M89.5366 360.717L103.215 374.376C106.76 370.588 106.68 364.644 102.982 360.952C99.2788 357.254 93.3301 357.176 89.5366 360.717Z" fill="#A9C9FF"/>
</g>
</svg>
