<svg width="286" height="342" viewBox="0 0 286 342" fill="none" xmlns="http://www.w3.org/2000/svg">
<mask id="mask0" mask-type="alpha" maskUnits="userSpaceOnUse" x="0" y="0" width="298" height="342">
<rect width="298" height="342" fill="#C4C4C4"/>
</mask>
<g mask="url(#mask0)">
<g opacity="0.5">
<g opacity="0.8">
<path d="M60.1668 -22.5H-0.666504V38.25H60.1668V-22.5Z" fill="#005FFF"/>
<path d="M121 -22.5H60.1665V38.25H121V-22.5Z" fill="#A9C9FF"/>
<path d="M60.1668 38.25H-0.666504V99H60.1668V38.25Z" fill="#DCE9FF"/>
<path d="M121 38.25H60.1665V99H121V38.25Z" fill="#005FFF"/>
<path d="M90.5834 90.252C102.544 90.252 112.24 80.5692 112.24 68.625C112.24 56.6807 102.544 46.998 90.5834 46.998C78.6228 46.998 68.9268 56.6807 68.9268 68.625C68.9268 80.5692 78.6228 90.252 90.5834 90.252Z" fill="#A9C9FF"/>
<path d="M60.1665 38.25V-22.5H121L60.1665 38.25Z" fill="#A9C9FF"/>
<path d="M60.1668 38.25H-0.666504V99C32.933 99 60.1668 71.8034 60.1668 38.25Z" fill="#A9C9FF"/>
<path d="M39.7268 38.25H-0.666504V78.588C21.6423 78.588 39.7268 60.5282 39.7268 38.25Z" fill="#005FFF"/>
<path d="M41.1868 -3.54602H18.3135V19.296H41.1868V-3.54602Z" fill="#A9C9FF"/>
<path d="M90.5833 78.831C96.2276 78.831 100.803 74.2616 100.803 68.625C100.803 62.9884 96.2276 58.419 90.5833 58.419C84.9389 58.419 80.3633 62.9884 80.3633 68.625C80.3633 74.2616 84.9389 78.831 90.5833 78.831Z" fill="#DCE9FF"/>
<path d="M90.5832 -22.5H60.1665V7.875H90.5832V-22.5Z" fill="#A9C9FF"/>
</g>
<g opacity="0.8">
<path d="M243.333 281.25H182.5V342H243.333V281.25Z" fill="#005FFF"/>
<path d="M182.5 342V281.25H243.333C243.333 314.803 216.099 342 182.5 342Z" fill="#DCE9FF"/>
<path d="M60.8333 99H0V159.75H60.8333V99Z" fill="#DCE9FF"/>
<path d="M121.667 99H60.8335V159.75H121.667V99Z" fill="#A9C9FF"/>
<path d="M182.5 99H121.667V159.75H182.5V99Z" fill="#005FFF"/>
<path d="M243.333 99H182.5V159.75H243.333V99Z" fill="#A9C9FF"/>
<path d="M304.167 99H243.333V159.75H304.167V99Z" fill="#DCE9FF"/>
<path d="M121.667 159.75H60.8335V220.5H121.667V159.75Z" fill="#A9C9FF"/>
<path d="M182.5 159.75H121.667V220.5H182.5V159.75Z" fill="#005FFF"/>
<path d="M173.739 190.12L152.083 168.494L130.427 190.12L152.083 211.746L173.739 190.12Z" fill="#A9C9FF"/>
<path d="M146.243 195.957C143.017 192.735 143.017 187.515 146.243 184.293C149.47 181.071 154.697 181.071 157.923 184.293C161.15 187.515 161.15 192.735 157.923 195.957C154.697 199.179 149.47 199.179 146.243 195.957Z" fill="#DCE9FF"/>
<path d="M243.333 159.75H182.5V220.5H243.333V159.75Z" fill="#DCE9FF"/>
<path d="M304.167 159.75H243.333V220.5H304.167V159.75Z" fill="#A9C9FF"/>
<path d="M121.667 220.5H60.8335V281.25H121.667V220.5Z" fill="#A9C9FF"/>
<path d="M182.5 220.5H121.667V281.25H182.5V220.5Z" fill="#DCE9FF"/>
<path d="M243.333 220.5H182.5V281.25H243.333V220.5Z" fill="#A9C9FF"/>
<path d="M235.547 228.276H190.287V273.474H235.547V228.276Z" fill="#DCE9FF"/>
<path d="M224.353 239.454H201.48V262.296H224.353V239.454Z" fill="#005FFF"/>
<path d="M304.167 220.5H243.333V281.25H304.167V220.5Z" fill="#005FFF"/>
<path d="M121.667 281.25H60.8335V342H121.667V281.25Z" fill="#DCE9FF"/>
<path d="M182.5 281.25H121.667V342H182.5V281.25Z" fill="#317DFF"/>
<path d="M182.5 342H178.606C147.158 342 121.667 316.543 121.667 285.138V281.25H182.5V342Z" fill="#DCE9FF"/>
<path d="M304.167 281.25H243.333V342H304.167V281.25Z" fill="#DCE9FF"/>
<path d="M0 99L60.8333 159.75V99H0Z" fill="#317DFF"/>
<path d="M182.5 159.75L243.333 220.5V159.75H182.5Z" fill="#317DFF"/>
<path d="M182.5 281.25L121.667 220.5V281.25H182.5Z" fill="#005FFF"/>
<path d="M158.653 281.25L121.667 244.314V281.25H158.653Z" fill="#A9C9FF"/>
<path d="M152.083 159.75C168.882 159.75 182.5 146.151 182.5 129.375C182.5 112.599 168.882 99 152.083 99C135.285 99 121.667 112.599 121.667 129.375C121.667 146.151 135.285 159.75 152.083 159.75Z" fill="#A9C9FF"/>
<path d="M90.1941 99.0194V159.731C73.881 159.176 60.8335 145.797 60.8335 129.375C60.8335 112.953 73.881 99.5734 90.1941 99.0194Z" fill="#A9C9FF"/>
<path d="M121.667 99.0194V159.731C105.354 159.176 92.3062 145.797 92.3062 129.375C92.3062 112.953 105.354 99.5734 121.667 99.0194Z" fill="#005FFF"/>
<path d="M60.853 159.75H121.647C121.093 176.041 107.695 189.07 91.2502 189.07C74.8058 189.07 61.4078 176.041 60.853 159.75Z" fill="#005FFF"/>
<path d="M60.853 251.93H121.647C121.093 268.22 107.695 281.25 91.2502 281.25C74.8058 281.25 61.4078 268.22 60.853 251.93Z" fill="#005FFF"/>
<path d="M121.647 220.5H60.853C61.4078 204.209 74.8058 191.18 91.2502 191.18C107.695 191.18 121.093 204.209 121.647 220.5Z" fill="#005FFF"/>
<path d="M60.853 220.5H121.647C121.093 236.791 107.695 249.82 91.2502 249.82C74.8058 249.82 61.4078 236.791 60.853 220.5Z" fill="#005FFF"/>
<path d="M106.448 220.5H76.0513C76.3287 212.355 83.0252 205.837 91.2499 205.837C99.4745 205.837 106.171 212.355 106.448 220.5Z" fill="#56B8FF"/>
<path d="M76.0513 220.5H106.448C106.171 228.645 99.4745 235.163 91.2499 235.163C83.0252 235.163 76.3287 228.645 76.0513 220.5Z" fill="#A9C9FF"/>
<path d="M76.0513 159.731H106.448C106.171 167.876 99.4745 174.393 91.2499 174.393C83.0252 174.388 76.3287 167.876 76.0513 159.731Z" fill="#A9C9FF"/>
<path d="M152.083 147.926C162.343 147.926 170.659 139.62 170.659 129.375C170.659 119.13 162.343 110.824 152.083 110.824C141.824 110.824 133.507 119.13 133.507 129.375C133.507 139.62 141.824 147.926 152.083 147.926Z" fill="#317DFF"/>
<path d="M152.083 138.366C157.056 138.366 161.087 134.341 161.087 129.375C161.087 124.409 157.056 120.384 152.083 120.384C147.111 120.384 143.08 124.409 143.08 129.375C143.08 134.341 147.111 138.366 152.083 138.366Z" fill="#DCE9FF"/>
<path d="M182.5 304.943L182.5 281.25L158.775 281.25L158.775 304.943L182.5 304.943Z" fill="#317DFF"/>
<path d="M206.225 304.943L206.225 281.25L182.5 281.25L182.5 304.943L206.225 304.943Z" fill="#A9C9FF"/>
<path d="M182.5 159.75H243.333V99C209.734 99 182.5 126.197 182.5 159.75Z" fill="#317DFF"/>
<path d="M304.167 159.75H243.333V99C276.933 99 304.167 126.197 304.167 159.75Z" fill="#317DFF"/>
<path d="M304.167 159.75H243.333V220.5C276.933 220.5 304.167 193.303 304.167 159.75Z" fill="#005FFF"/>
<path d="M304.167 281.25H243.333V342C276.933 342 304.167 314.803 304.167 281.25Z" fill="#A9C9FF"/>
<path d="M283.727 281.25H243.333V321.588C265.642 321.588 283.727 303.528 283.727 281.25Z" fill="#005FFF"/>
<path d="M60.8333 159.75H0V220.5C33.5995 220.5 60.8333 193.303 60.8333 159.75Z" fill="#005FFF"/>
<path d="M40.2327 159.75H0V199.928C22.2212 199.928 40.2327 181.941 40.2327 159.75Z" fill="#DCE9FF"/>
<path d="M22.8733 159.75H0V182.592C12.6339 182.592 22.8733 172.367 22.8733 159.75Z" fill="#A9C9FF"/>
<path d="M243.333 194.499C262.551 194.499 278.13 178.941 278.13 159.75C278.13 140.559 262.551 125.001 243.333 125.001C224.116 125.001 208.537 140.559 208.537 159.75C208.537 178.941 224.116 194.499 243.333 194.499Z" fill="#A9C9FF"/>
<path d="M243.333 186.237C257.982 186.237 269.857 174.378 269.857 159.75C269.857 145.122 257.982 133.263 243.333 133.263C228.685 133.263 216.81 145.122 216.81 159.75C216.81 174.378 228.685 186.237 243.333 186.237Z" fill="#0043B5"/>
<path d="M243.333 177.246C253.01 177.246 260.854 169.413 260.854 159.75C260.854 150.087 253.01 142.254 243.333 142.254C233.657 142.254 225.813 150.087 225.813 159.75C225.813 169.413 233.657 177.246 243.333 177.246Z" fill="#DCE9FF"/>
<path d="M285.187 239.454H262.313V262.296H285.187V239.454Z" fill="#A9C9FF"/>
<path d="M163.841 239.128H140.321V262.617H163.841V239.128Z" fill="#005FFF"/>
<path d="M101.995 300.894L80.4993 322.361C74.927 316.407 75.0535 307.066 80.8643 301.263C86.6848 295.451 96.0337 295.329 101.995 300.894Z" fill="#56B8FF"/>
<path d="M80.5044 322.356L102 300.889C107.573 306.843 107.446 316.184 101.635 321.987C95.8149 327.799 86.4661 327.921 80.5044 322.356Z" fill="#A9C9FF"/>
</g>
</g>
</g>
</svg>
