<svg width="41" height="99" viewBox="0 0 41 99" fill="none" xmlns="http://www.w3.org/2000/svg">
<mask id="mask0" mask-type="alpha" maskUnits="userSpaceOnUse" x="0" y="0" width="41" height="99">
<rect width="41" height="99" fill="#C4C4C4"/>
</mask>
<g mask="url(#mask0)">
<g opacity="0.5">
<g opacity="0.8" clip-path="url(#clip0)">
<path d="M16.3332 101.25L77.1665 101.25L77.1665 40.5L16.3332 40.5L16.3332 101.25Z" fill="#A9C9FF"/>
<path d="M-44.4998 101.25L16.3335 101.25L16.3335 40.5L-44.4998 40.5L-44.4998 101.25Z" fill="#005FFF"/>
<path d="M-35.7386 70.8801L-14.083 92.506L7.5726 70.8801L-14.083 49.2542L-35.7386 70.8801Z" fill="#A9C9FF"/>
<path d="M16.3332 40.5L77.1665 40.5L77.1665 -20.25L16.3332 -20.25L16.3332 40.5Z" fill="#A9C9FF"/>
<path d="M-44.4998 40.5L16.3335 40.5L16.3335 -20.25L-44.4998 -20.25L-44.4998 40.5Z" fill="#DCE9FF"/>
<path d="M-44.4998 -20.25L16.3335 40.5L16.3335 -20.25L-44.4998 -20.25Z" fill="#005FFF"/>
<path d="M-20.6532 -20.25L16.3335 16.686L16.3335 -20.25L-20.6532 -20.25Z" fill="#A9C9FF"/>
<path d="M77.147 101.25L16.3526 101.25C16.9074 84.9593 30.3053 71.9296 46.7498 71.9296C63.1942 71.9296 76.5922 84.9593 77.147 101.25Z" fill="#005FFF"/>
<path d="M77.147 9.07037L16.3526 9.07038C16.9074 -7.22034 30.3053 -20.25 46.7498 -20.25C63.1942 -20.25 76.5922 -7.22035 77.147 9.07037Z" fill="#005FFF"/>
<path d="M16.3526 40.5L77.147 40.5C76.5922 56.7907 63.1942 69.8204 46.7498 69.8204C30.3053 69.8204 16.9074 56.7907 16.3526 40.5Z" fill="#005FFF"/>
<path d="M77.147 40.5L16.3526 40.5C16.9074 24.2093 30.3053 11.1796 46.7498 11.1796C63.1942 11.1796 76.5922 24.2093 77.147 40.5Z" fill="#005FFF"/>
<path d="M31.5515 40.5L61.9487 40.5C61.6713 48.6453 54.9748 55.1626 46.7501 55.1626C38.5255 55.1626 31.8289 48.6453 31.5515 40.5Z" fill="#56B8FF"/>
<path d="M61.9487 40.5L31.5515 40.5C31.8289 32.3546 38.5255 25.8374 46.7501 25.8374C54.9748 25.8374 61.6713 32.3546 61.9487 40.5Z" fill="#A9C9FF"/>
<path d="M61.9487 101.269L31.5515 101.269C31.8289 93.1241 38.5255 86.6069 46.7501 86.6069C54.9748 86.6117 61.6713 93.1241 61.9487 101.269Z" fill="#A9C9FF"/>
</g>
</g>
</g>
<defs>
<clipPath id="clip0">
<rect width="365" height="243" fill="white" transform="translate(138 162) rotate(180)"/>
</clipPath>
</defs>
</svg>
