<svg width="310" height="305" viewBox="0 0 310 305" fill="none" xmlns="http://www.w3.org/2000/svg">
<mask id="mask0" mask-type="alpha" maskUnits="userSpaceOnUse" x="-2" y="0" width="312" height="305">
<rect x="-2" y="0.306885" width="312" height="304.693" fill="#C4C4C4"/>
</mask>
<g mask="url(#mask0)">
<g opacity="0.5">
<g opacity="0.8" clip-path="url(#clip0)">
<path d="M42.8154 133.473H-1.63428V177.862H42.8154V133.473Z" fill="#005FFF"/>
<path d="M-1.63428 177.862V133.473H42.8154C42.8154 157.99 22.9162 177.862 -1.63428 177.862Z" fill="#DCE9FF"/>
<path d="M42.8154 0.306885H-1.63428V44.6956H42.8154V0.306885Z" fill="#A9C9FF"/>
<path d="M87.2646 0.306885H42.8149V44.6956H87.2646V0.306885Z" fill="#DCE9FF"/>
<path d="M131.714 0.306885H87.2646V44.6956H131.714V0.306885Z" fill="#A9C9FF"/>
<path d="M42.8154 44.6956H-1.63428V89.0843H42.8154V44.6956Z" fill="#DCE9FF"/>
<path d="M87.2646 44.6956H42.8149V89.0843H87.2646V44.6956Z" fill="#A9C9FF"/>
<path d="M131.714 44.6956H87.2646V89.0843H131.714V44.6956Z" fill="#005FFF"/>
<path d="M119.389 57.0073H99.5933V76.7763H119.389V57.0073Z" fill="#317DFF"/>
<path d="M42.8154 89.0845H-1.63428V133.473H42.8154V89.0845Z" fill="#A9C9FF"/>
<path d="M37.1257 94.7661H4.05518V127.791H37.1257V94.7661Z" fill="#DCE9FF"/>
<path d="M28.947 102.934H12.2339V119.624H28.947V102.934Z" fill="#005FFF"/>
<path d="M87.2646 89.0845H42.8149V133.473H87.2646V89.0845Z" fill="#005FFF"/>
<path d="M131.714 89.0845H87.2646V133.473H131.714V89.0845Z" fill="#A9C9FF"/>
<path d="M87.2646 133.473H42.8149V177.862H87.2646V133.473Z" fill="#DCE9FF"/>
<path d="M131.714 133.473H87.2646V177.862H131.714V133.473Z" fill="#005FFF"/>
<path d="M-1.63428 44.6956L42.8154 89.0843V44.6956H-1.63428Z" fill="#317DFF"/>
<path d="M109.49 171.47C118.229 171.47 125.314 164.395 125.314 155.668C125.314 146.94 118.229 139.865 109.49 139.865C100.75 139.865 93.6655 146.94 93.6655 155.668C93.6655 164.395 100.75 171.47 109.49 171.47Z" fill="#A9C9FF"/>
<path d="M131.7 44.6955H87.2793C87.6847 32.7922 97.4743 23.2717 109.49 23.2717C121.506 23.2717 131.295 32.7922 131.7 44.6955Z" fill="#005FFF"/>
<path d="M131.7 21.7448H87.2793C87.6847 9.84155 97.4743 0.321045 109.49 0.321045C121.506 0.321045 131.295 9.84155 131.7 21.7448Z" fill="#DCE9FF"/>
<path d="M87.2646 133.473V89.0845H131.714L87.2646 133.473Z" fill="#A9C9FF"/>
<path d="M15.7007 150.785L15.7007 133.473L-1.63469 133.473L-1.63469 150.785L15.7007 150.785Z" fill="#A9C9FF"/>
<path d="M-1.63428 44.6956H42.8154V0.306885C18.2649 0.306885 -1.63428 20.1788 -1.63428 44.6956Z" fill="#317DFF"/>
<path d="M87.2646 44.6956H42.8149V0.306885C67.3654 0.306885 87.2646 20.1788 87.2646 44.6956Z" fill="#317DFF"/>
<path d="M87.2646 44.6956H42.8149V89.0843C67.3654 89.0843 87.2646 69.2124 87.2646 44.6956Z" fill="#005FFF"/>
<path d="M87.2646 133.473H42.8149V177.862C67.3654 177.862 87.2646 157.99 87.2646 133.473Z" fill="#A9C9FF"/>
<path d="M72.3295 133.473H42.8149V162.947C59.1155 162.947 72.3295 149.751 72.3295 133.473Z" fill="#005FFF"/>
<path d="M42.8153 70.0859C56.8573 70.0859 68.2405 58.7183 68.2405 44.6956C68.2405 30.6728 56.8573 19.3052 42.8153 19.3052C28.7734 19.3052 17.3901 30.6728 17.3901 44.6956C17.3901 58.7183 28.7734 70.0859 42.8153 70.0859Z" fill="#A9C9FF"/>
<path d="M42.8151 64.049C53.5184 64.049 62.1951 55.3842 62.1951 44.6955C62.1951 34.0069 53.5184 25.342 42.8151 25.342C32.1118 25.342 23.4351 34.0069 23.4351 44.6955C23.4351 55.3842 32.1118 64.049 42.8151 64.049Z" fill="#0043B5"/>
<path d="M42.8152 57.4795C49.8853 57.4795 55.6167 51.756 55.6167 44.6956C55.6167 37.6352 49.8853 31.9116 42.8152 31.9116C35.7451 31.9116 30.0137 37.6352 30.0137 44.6956C30.0137 51.756 35.7451 57.4795 42.8152 57.4795Z" fill="#DCE9FF"/>
<path d="M73.3967 102.934H56.6836V119.624H73.3967V102.934Z" fill="#A9C9FF"/>
<path d="M109.49 163.125C113.614 163.125 116.957 159.786 116.957 155.668C116.957 151.549 113.614 148.21 109.49 148.21C105.365 148.21 102.022 151.549 102.022 155.668C102.022 159.786 105.365 163.125 109.49 163.125Z" fill="#DCE9FF"/>
<path d="M109.489 89.0845H87.2646V111.279H109.489V89.0845Z" fill="#A9C9FF"/>
</g>
<g opacity="0.8" clip-path="url(#clip1)">
<path d="M87.7519 177.862H43.3022V222.251H87.7519V177.862Z" fill="#DCE9FF"/>
<path d="M132.202 177.862H87.752V222.251H132.202V177.862Z" fill="#A9C9FF"/>
<path d="M176.651 177.862H132.202V222.251H176.651V177.862Z" fill="#005FFF"/>
<path d="M221.101 177.862H176.651V222.251H221.101V177.862Z" fill="#A9C9FF"/>
<path d="M265.55 177.862H221.101V222.251H265.55V177.862Z" fill="#DCE9FF"/>
<path d="M310 177.862H265.551V222.251H310V177.862Z" fill="#A9C9FF"/>
<path d="M132.202 222.25H87.752V266.639H132.202V222.25Z" fill="#A9C9FF"/>
<path d="M176.651 222.25H132.202V266.639H176.651V222.25Z" fill="#005FFF"/>
<path d="M170.249 244.441L154.426 228.64L138.602 244.441L154.426 260.243L170.249 244.441Z" fill="#A9C9FF"/>
<path d="M150.159 248.706C147.802 246.352 147.802 242.538 150.159 240.184C152.517 237.829 156.336 237.829 158.694 240.184C161.051 242.538 161.051 246.352 158.694 248.706C156.336 251.061 152.517 251.061 150.159 248.706Z" fill="#DCE9FF"/>
<path d="M221.101 222.25H176.651V266.639H221.101V222.25Z" fill="#DCE9FF"/>
<path d="M265.55 222.25H221.101V266.639H265.55V222.25Z" fill="#A9C9FF"/>
<path d="M310 222.25H265.551V266.639H310V222.25Z" fill="#005FFF"/>
<path d="M297.675 234.562H277.879V254.331H297.675V234.562Z" fill="#317DFF"/>
<path d="M132.202 266.639H87.752V311.028H132.202V266.639Z" fill="#A9C9FF"/>
<path d="M176.651 266.639H132.202V311.028H176.651V266.639Z" fill="#DCE9FF"/>
<path d="M221.101 266.639H176.651V311.028H221.101V266.639Z" fill="#A9C9FF"/>
<path d="M215.411 272.321H182.341V305.346H215.411V272.321Z" fill="#DCE9FF"/>
<path d="M207.233 280.489H190.52V297.179H207.233V280.489Z" fill="#005FFF"/>
<path d="M265.55 266.639H221.101V311.028H265.55V266.639Z" fill="#005FFF"/>
<path d="M310 266.639H265.551V311.028H310V266.639Z" fill="#A9C9FF"/>
<path d="M43.3022 177.862L87.7519 222.251V177.862H43.3022Z" fill="#317DFF"/>
<path d="M176.651 222.25L221.101 266.639V222.25H176.651Z" fill="#317DFF"/>
<path d="M176.651 311.028L132.202 266.639V311.028H176.651Z" fill="#005FFF"/>
<path d="M159.227 311.028L132.202 284.04V311.028H159.227Z" fill="#A9C9FF"/>
<path d="M154.426 222.251C166.701 222.251 176.651 212.314 176.651 200.056C176.651 187.799 166.701 177.862 154.426 177.862C142.152 177.862 132.202 187.799 132.202 200.056C132.202 212.314 142.152 222.251 154.426 222.251Z" fill="#A9C9FF"/>
<path d="M109.205 177.876V222.236C97.2855 221.832 87.752 212.055 87.752 200.056C87.752 188.057 97.2855 178.281 109.205 177.876Z" fill="#A9C9FF"/>
<path d="M132.202 177.876V222.236C120.282 221.832 110.749 212.055 110.749 200.056C110.749 188.057 120.282 178.281 132.202 177.876Z" fill="#005FFF"/>
<path d="M309.986 222.25H265.565C265.97 210.347 275.76 200.827 287.776 200.827C299.791 200.827 309.581 210.347 309.986 222.25Z" fill="#005FFF"/>
<path d="M309.986 199.3H265.565C265.97 187.396 275.76 177.876 287.776 177.876C299.791 177.876 309.581 187.396 309.986 199.3Z" fill="#DCE9FF"/>
<path d="M87.7661 222.25H132.187C131.782 234.154 121.992 243.674 109.977 243.674C97.9611 243.674 88.1715 234.154 87.7661 222.25Z" fill="#005FFF"/>
<path d="M87.7661 289.604H132.187C131.782 301.508 121.992 311.028 109.977 311.028C97.9611 311.028 88.1715 301.508 87.7661 289.604Z" fill="#005FFF"/>
<path d="M132.187 266.639H87.7661C88.1715 254.736 97.9611 245.216 109.977 245.216C121.992 245.216 131.782 254.736 132.187 266.639Z" fill="#005FFF"/>
<path d="M87.7661 266.639H132.187C131.782 278.543 121.992 288.063 109.977 288.063C97.9611 288.063 88.1715 278.543 87.7661 266.639Z" fill="#005FFF"/>
<path d="M121.082 266.639H98.8716C99.0743 260.688 103.967 255.926 109.977 255.926C115.986 255.926 120.88 260.688 121.082 266.639Z" fill="#56B8FF"/>
<path d="M98.8716 266.639H121.082C120.88 272.591 115.986 277.353 109.977 277.353C103.967 277.353 99.0743 272.591 98.8716 266.639Z" fill="#A9C9FF"/>
<path d="M98.8716 222.236H121.082C120.88 228.188 115.986 232.95 109.977 232.95C103.967 232.946 99.0743 228.188 98.8716 222.236Z" fill="#A9C9FF"/>
<path d="M154.426 213.611C161.922 213.611 167.999 207.542 167.999 200.056C167.999 192.57 161.922 186.502 154.426 186.502C146.93 186.502 140.853 192.57 140.853 200.056C140.853 207.542 146.93 213.611 154.426 213.611Z" fill="#317DFF"/>
<path d="M154.426 206.626C158.059 206.626 161.005 203.684 161.005 200.056C161.005 196.428 158.059 193.487 154.426 193.487C150.793 193.487 147.848 196.428 147.848 200.056C147.848 203.684 150.793 206.626 154.426 206.626Z" fill="#DCE9FF"/>
<path d="M265.551 311.028V266.639H310L265.551 311.028Z" fill="#A9C9FF"/>
<path d="M176.651 222.251H221.101V177.862C196.551 177.862 176.651 197.734 176.651 222.251Z" fill="#317DFF"/>
<path d="M265.55 222.251H221.101V177.862C245.651 177.862 265.55 197.734 265.55 222.251Z" fill="#317DFF"/>
<path d="M265.55 222.25H221.101V266.639C245.651 266.639 265.55 246.767 265.55 222.25Z" fill="#005FFF"/>
<path d="M87.7519 222.25H43.3022V266.639C67.8527 266.639 87.7519 246.767 87.7519 222.25Z" fill="#005FFF"/>
<path d="M72.6995 222.25H43.3022V251.607C59.5388 251.607 72.6995 238.465 72.6995 222.25Z" fill="#DCE9FF"/>
<path d="M60.0153 222.25H43.3022V238.941C52.5335 238.941 60.0153 231.469 60.0153 222.25Z" fill="#A9C9FF"/>
<path d="M221.101 247.641C235.143 247.641 246.526 236.273 246.526 222.25C246.526 208.228 235.143 196.86 221.101 196.86C207.059 196.86 195.676 208.228 195.676 222.25C195.676 236.273 207.059 247.641 221.101 247.641Z" fill="#A9C9FF"/>
<path d="M221.101 241.604C231.804 241.604 240.481 232.939 240.481 222.25C240.481 211.562 231.804 202.897 221.101 202.897C210.397 202.897 201.721 211.562 201.721 222.25C201.721 232.939 210.397 241.604 221.101 241.604Z" fill="#0043B5"/>
<path d="M221.101 235.034C228.171 235.034 233.902 229.311 233.902 222.251C233.902 215.19 228.171 209.467 221.101 209.467C214.031 209.467 208.299 215.19 208.299 222.251C208.299 229.311 214.031 235.034 221.101 235.034Z" fill="#DCE9FF"/>
<path d="M251.682 280.489H234.969V297.179H251.682V280.489Z" fill="#A9C9FF"/>
<path d="M287.776 266.639H265.551V288.834H287.776V266.639Z" fill="#A9C9FF"/>
<path d="M163.018 280.251H145.832V297.413H163.018V280.251Z" fill="#005FFF"/>
</g>
</g>
</g>
<defs>
<clipPath id="clip0">
<rect width="266.698" height="177.555" fill="white" transform="translate(-134.983 0.306885)"/>
</clipPath>
<clipPath id="clip1">
<rect width="266.698" height="177.555" fill="white" transform="translate(43.3022 177.862)"/>
</clipPath>
</defs>
</svg>
