<svg width="298" height="243" viewBox="0 0 298 243" fill="none" xmlns="http://www.w3.org/2000/svg">
<mask id="mask0" mask-type="alpha" maskUnits="userSpaceOnUse" x="0" y="0" width="298" height="243">
<rect width="298" height="243" fill="#C4C4C4"/>
</mask>
<g mask="url(#mask0)">
<g opacity="0.5">
<g opacity="0.8">
<path d="M243.333 182.25H182.5V243H243.333V182.25Z" fill="#005FFF"/>
<path d="M182.5 243V182.25H243.333C243.333 215.803 216.099 243 182.5 243Z" fill="#DCE9FF"/>
<path d="M60.8333 0H0V60.75H60.8333V0Z" fill="#DCE9FF"/>
<path d="M121.667 0H60.8333V60.75H121.667V0Z" fill="#A9C9FF"/>
<path d="M182.5 0H121.667V60.75H182.5V0Z" fill="#005FFF"/>
<path d="M243.333 0H182.5V60.75H243.333V0Z" fill="#A9C9FF"/>
<path d="M304.167 0H243.333V60.75H304.167V0Z" fill="#DCE9FF"/>
<path d="M121.667 60.75H60.8333V121.5H121.667V60.75Z" fill="#A9C9FF"/>
<path d="M182.5 60.75H121.667V121.5H182.5V60.75Z" fill="#005FFF"/>
<path d="M173.739 91.1199L152.083 69.494L130.427 91.12L152.083 112.746L173.739 91.1199Z" fill="#A9C9FF"/>
<path d="M146.243 96.957C143.017 93.7348 143.017 88.5152 146.243 85.293C149.47 82.0708 154.697 82.0708 157.923 85.293C161.15 88.5152 161.15 93.7348 157.923 96.957C154.697 100.179 149.47 100.179 146.243 96.957Z" fill="#DCE9FF"/>
<path d="M243.333 60.75H182.5V121.5H243.333V60.75Z" fill="#DCE9FF"/>
<path d="M304.167 60.75H243.333V121.5H304.167V60.75Z" fill="#A9C9FF"/>
<path d="M121.667 121.5H60.8333V182.25H121.667V121.5Z" fill="#A9C9FF"/>
<path d="M182.5 121.5H121.667V182.25H182.5V121.5Z" fill="#DCE9FF"/>
<path d="M243.333 121.5H182.5V182.25H243.333V121.5Z" fill="#A9C9FF"/>
<path d="M235.547 129.276H190.287V174.474H235.547V129.276Z" fill="#DCE9FF"/>
<path d="M224.353 140.454H201.48V163.296H224.353V140.454Z" fill="#005FFF"/>
<path d="M304.167 121.5H243.333V182.25H304.167V121.5Z" fill="#005FFF"/>
<path d="M121.667 182.25H60.8333V243H121.667V182.25Z" fill="#DCE9FF"/>
<path d="M182.5 182.25H121.667V243H182.5V182.25Z" fill="#317DFF"/>
<path d="M182.5 243H178.607C147.158 243 121.667 217.543 121.667 186.138V182.25H182.5V243Z" fill="#DCE9FF"/>
<path d="M304.167 182.25H243.333V243H304.167V182.25Z" fill="#DCE9FF"/>
<path d="M0 0L60.8333 60.75V0H0Z" fill="#317DFF"/>
<path d="M182.5 60.75L243.333 121.5V60.75H182.5Z" fill="#317DFF"/>
<path d="M182.5 182.25L121.667 121.5V182.25H182.5Z" fill="#005FFF"/>
<path d="M158.653 182.25L121.667 145.314V182.25H158.653Z" fill="#A9C9FF"/>
<path d="M152.083 60.75C168.882 60.75 182.5 47.1507 182.5 30.375C182.5 13.5994 168.882 0 152.083 0C135.285 0 121.667 13.5994 121.667 30.375C121.667 47.1507 135.285 60.75 152.083 60.75Z" fill="#A9C9FF"/>
<path d="M90.1938 0.0194092V60.7305C73.8808 60.1765 60.8333 46.7969 60.8333 30.375C60.8333 13.953 73.8808 0.573449 90.1938 0.0194092Z" fill="#A9C9FF"/>
<path d="M121.667 0.0194092V60.7305C105.354 60.1765 92.3062 46.7969 92.3062 30.375C92.3062 13.953 105.354 0.573449 121.667 0.0194092Z" fill="#005FFF"/>
<path d="M60.8528 60.75H121.647C121.092 77.0407 107.694 90.0704 91.25 90.0704C74.8055 90.0704 61.4076 77.0407 60.8528 60.75Z" fill="#005FFF"/>
<path d="M60.8528 152.93H121.647C121.092 169.22 107.694 182.25 91.25 182.25C74.8055 182.25 61.4076 169.22 60.8528 152.93Z" fill="#005FFF"/>
<path d="M121.647 121.5H60.8528C61.4076 105.209 74.8055 92.1796 91.25 92.1796C107.694 92.1796 121.092 105.209 121.647 121.5Z" fill="#005FFF"/>
<path d="M60.8528 121.5H121.647C121.092 137.791 107.694 150.82 91.25 150.82C74.8055 150.82 61.4076 137.791 60.8528 121.5Z" fill="#005FFF"/>
<path d="M106.449 121.5H76.0515C76.3289 113.355 83.0254 106.837 91.2501 106.837C99.4748 106.837 106.171 113.355 106.449 121.5Z" fill="#56B8FF"/>
<path d="M76.0515 121.5H106.449C106.171 129.645 99.4748 136.163 91.2501 136.163C83.0254 136.163 76.3289 129.645 76.0515 121.5Z" fill="#A9C9FF"/>
<path d="M76.0515 60.7306H106.449C106.171 68.8759 99.4748 75.3932 91.2501 75.3932C83.0254 75.3883 76.3289 68.8759 76.0515 60.7306Z" fill="#A9C9FF"/>
<path d="M152.083 48.9256C162.343 48.9256 170.659 40.6202 170.659 30.375C170.659 20.1298 162.343 11.8244 152.083 11.8244C141.824 11.8244 133.507 20.1298 133.507 30.375C133.507 40.6202 141.824 48.9256 152.083 48.9256Z" fill="#317DFF"/>
<path d="M152.083 39.366C157.056 39.366 161.087 35.3406 161.087 30.375C161.087 25.4094 157.056 21.384 152.083 21.384C147.111 21.384 143.08 25.4094 143.08 30.375C143.08 35.3406 147.111 39.366 152.083 39.366Z" fill="#DCE9FF"/>
<path d="M182.5 205.943L182.5 182.25L158.775 182.25L158.775 205.943L182.5 205.943Z" fill="#317DFF"/>
<path d="M206.225 205.943L206.225 182.25L182.5 182.25L182.5 205.943L206.225 205.943Z" fill="#A9C9FF"/>
<path d="M182.5 60.75H243.333V0C209.734 0 182.5 27.1966 182.5 60.75Z" fill="#317DFF"/>
<path d="M304.167 60.75H243.333V0C276.933 0 304.167 27.1966 304.167 60.75Z" fill="#317DFF"/>
<path d="M304.167 60.75H243.333V121.5C276.933 121.5 304.167 94.3034 304.167 60.75Z" fill="#005FFF"/>
<path d="M304.167 182.25H243.333V243C276.933 243 304.167 215.803 304.167 182.25Z" fill="#A9C9FF"/>
<path d="M283.727 182.25H243.333V222.588C265.642 222.588 283.727 204.528 283.727 182.25Z" fill="#005FFF"/>
<path d="M60.8333 60.75H0V121.5C33.5995 121.5 60.8333 94.3034 60.8333 60.75Z" fill="#005FFF"/>
<path d="M40.2327 60.75H0V100.928C22.2212 100.928 40.2327 82.9408 40.2327 60.75Z" fill="#DCE9FF"/>
<path d="M22.8733 60.75H0V83.592C12.6339 83.592 22.8733 73.3666 22.8733 60.75Z" fill="#A9C9FF"/>
<path d="M243.333 95.499C262.551 95.499 278.13 79.9413 278.13 60.75C278.13 41.5586 262.551 26.001 243.333 26.001C224.116 26.001 208.537 41.5586 208.537 60.75C208.537 79.9413 224.116 95.499 243.333 95.499Z" fill="#A9C9FF"/>
<path d="M243.333 87.237C257.982 87.237 269.857 75.3784 269.857 60.75C269.857 46.1216 257.982 34.263 243.333 34.263C228.685 34.263 216.81 46.1216 216.81 60.75C216.81 75.3784 228.685 87.237 243.333 87.237Z" fill="#0043B5"/>
<path d="M243.333 78.246C253.009 78.246 260.853 70.4128 260.853 60.75C260.853 51.0873 253.009 43.254 243.333 43.254C233.657 43.254 225.813 51.0873 225.813 60.75C225.813 70.4128 233.657 78.246 243.333 78.246Z" fill="#DCE9FF"/>
<path d="M285.187 140.454H262.313V163.296H285.187V140.454Z" fill="#A9C9FF"/>
<path d="M163.841 140.128H140.321V163.617H163.841V140.128Z" fill="#005FFF"/>
<path d="M101.996 201.894L80.4995 223.361C74.9272 217.407 75.0537 208.066 80.8645 202.263C86.6851 196.451 96.034 196.329 101.996 201.894Z" fill="#56B8FF"/>
<path d="M80.5044 223.356L102 201.889C107.573 207.843 107.446 217.184 101.635 222.987C95.8149 228.799 86.4661 228.921 80.5044 223.356Z" fill="#A9C9FF"/>
</g>
</g>
</g>
</svg>
