<svg width="364" height="364" viewBox="0 0 364 364" fill="none" xmlns="http://www.w3.org/2000/svg">
<mask id="mask0" mask-type="alpha" maskUnits="userSpaceOnUse" x="0" y="0" width="364" height="364">
<rect width="364" height="364" fill="#C4C4C4"/>
</mask>
<g mask="url(#mask0)">
<g opacity="0.5">
<g opacity="0.8" clip-path="url(#clip0)">
<path d="M120.667 303.75L181.5 303.75L181.5 243L120.667 243L120.667 303.75Z" fill="#005FFF"/>
<path d="M181.5 243L181.5 303.75L120.667 303.75C120.667 270.197 147.901 243 181.5 243Z" fill="#DCE9FF"/>
<path d="M319.548 348.136L347.614 348.136L347.614 320.109L319.548 320.109L319.548 348.136Z" fill="#317DFF"/>
<path d="M242.333 364.5L303.167 364.5L303.167 303.75L242.333 303.75L242.333 364.5Z" fill="#A9C9FF"/>
<path d="M181.5 364.5L242.333 364.5L242.333 303.75L181.5 303.75L181.5 364.5Z" fill="#DCE9FF"/>
<path d="M120.667 364.5L181.5 364.5L181.5 303.75L120.667 303.75L120.667 364.5Z" fill="#A9C9FF"/>
<path d="M128.453 356.724L173.713 356.724L173.713 311.526L128.453 311.526L128.453 356.724Z" fill="#DCE9FF"/>
<path d="M139.647 345.546L162.52 345.546L162.52 322.704L139.647 322.704L139.647 345.546Z" fill="#005FFF"/>
<path d="M59.8333 364.5L120.667 364.5L120.667 303.75L59.8333 303.75L59.8333 364.5Z" fill="#005FFF"/>
<path d="M-1.00002 364.5L59.8333 364.5L59.8333 303.75L-1.00002 303.75L-1.00002 364.5Z" fill="#A9C9FF"/>
<path d="M242.333 303.75L303.167 303.75L303.167 243L242.333 243L242.333 303.75Z" fill="#DCE9FF"/>
<path d="M181.5 303.75L242.333 303.75L242.333 243L181.5 243L181.5 303.75Z" fill="#317DFF"/>
<path d="M181.5 243L185.393 243C216.842 243 242.333 268.457 242.333 299.862L242.333 303.75L181.5 303.75L181.5 243Z" fill="#DCE9FF"/>
<path d="M59.8333 303.75L120.667 303.75L120.667 243L59.8333 243L59.8333 303.75Z" fill="#DCE9FF"/>
<path d="M-1.00002 303.75L59.8333 303.75L59.8333 243L-1.00002 243L-1.00002 303.75Z" fill="#005FFF"/>
<path d="M181.5 303.75L242.333 364.5L242.333 303.75L181.5 303.75Z" fill="#005FFF"/>
<path d="M205.347 303.75L242.333 340.686L242.333 303.75L205.347 303.75Z" fill="#A9C9FF"/>
<path d="M29.4167 251.748C17.456 251.748 7.75999 261.431 7.75999 273.375C7.75999 285.319 17.456 295.002 29.4167 295.002C41.3773 295.002 51.0733 285.319 51.0733 273.375C51.0733 261.431 41.3773 251.748 29.4167 251.748Z" fill="#A9C9FF"/>
<path d="M303.147 333.07L242.353 333.07C242.908 316.78 256.306 303.75 272.75 303.75C289.194 303.75 302.592 316.78 303.147 333.07Z" fill="#005FFF"/>
<path d="M303.147 364.5L242.353 364.5C242.908 348.209 256.306 335.18 272.75 335.18C289.194 335.18 302.592 348.209 303.147 364.5Z" fill="#005FFF"/>
<path d="M287.949 364.5L257.551 364.5C257.829 356.355 264.525 349.837 272.75 349.837C280.975 349.837 287.671 356.355 287.949 364.5Z" fill="#A9C9FF"/>
<path d="M59.8333 303.75L59.8333 364.5L-1.00002 364.5L59.8333 303.75Z" fill="#A9C9FF"/>
<path d="M181.5 280.057L181.5 303.75L205.225 303.75L205.225 280.057L181.5 280.057Z" fill="#317DFF"/>
<path d="M157.775 280.057L157.775 303.75L181.5 303.75L181.5 280.057L157.775 280.057Z" fill="#A9C9FF"/>
<path d="M59.8333 303.75L120.667 303.75L120.667 243C87.0672 243 59.8333 270.197 59.8333 303.75Z" fill="#A9C9FF"/>
<path d="M80.2733 303.75L120.667 303.75L120.667 263.412C98.3579 263.412 80.2733 281.472 80.2733 303.75Z" fill="#005FFF"/>
<path d="M78.8133 345.546L101.687 345.546L101.687 322.704L78.8133 322.704L78.8133 345.546Z" fill="#A9C9FF"/>
<path d="M29.4167 263.169C23.7723 263.169 19.1967 267.738 19.1967 273.375C19.1967 279.012 23.7723 283.581 29.4167 283.581C35.061 283.581 39.6366 279.012 39.6366 273.375C39.6366 267.738 35.061 263.169 29.4167 263.169Z" fill="#DCE9FF"/>
<path d="M29.4166 364.5L59.8333 364.5L59.8333 334.125L29.4166 334.125L29.4166 364.5Z" fill="#A9C9FF"/>
<path d="M200.159 345.872L223.679 345.872L223.679 322.383L200.159 322.383L200.159 345.872Z" fill="#005FFF"/>
<path d="M262.004 284.106L283.5 262.639C289.073 268.593 288.946 277.934 283.135 283.737C277.315 289.549 267.966 289.671 262.004 284.106Z" fill="#56B8FF"/>
<path d="M283.496 262.644L262 284.111C256.427 278.157 256.554 268.816 262.365 263.014C268.185 257.201 277.534 257.08 283.496 262.644Z" fill="#A9C9FF"/>
</g>
<g opacity="0.8" clip-path="url(#clip1)">
<path d="M59.1666 243L120 243L120 182.25L59.1666 182.25L59.1666 243Z" fill="#DCE9FF"/>
<path d="M-1.66669 243L59.1666 243L59.1666 182.25L-1.6667 182.25L-1.66669 243Z" fill="#A9C9FF"/>
<path d="M-1.66669 182.25L59.1666 182.25L59.1666 121.5L-1.6667 121.5L-1.66669 182.25Z" fill="#A9C9FF"/>
<path d="M-1.66671 121.5L59.1666 121.5L59.1666 60.75L-1.66672 60.75L-1.66671 121.5Z" fill="#A9C9FF"/>
<path d="M-1.66671 60.75L59.1666 60.75L59.1666 0L-1.66672 5.31822e-06L-1.66671 60.75Z" fill="#DCE9FF"/>
<path d="M120 243L59.1666 182.25L59.1666 243L120 243Z" fill="#317DFF"/>
<path d="M29.806 242.98L29.806 182.269C46.1191 182.823 59.1666 196.203 59.1666 212.625C59.1666 229.047 46.1191 242.426 29.806 242.98Z" fill="#A9C9FF"/>
<path d="M-1.66669 242.98L-1.6667 182.269C14.6464 182.823 27.6939 196.203 27.6939 212.625C27.6939 229.047 14.6464 242.426 -1.66669 242.98Z" fill="#005FFF"/>
<path d="M59.1472 182.25L-1.64724 182.25C-1.09244 165.959 12.3055 152.93 28.75 152.93C45.1944 152.93 58.5924 165.959 59.1472 182.25Z" fill="#005FFF"/>
<path d="M59.1472 90.0703L-1.64725 90.0703C-1.09245 73.7796 12.3055 60.7499 28.75 60.7499C45.1944 60.7499 58.5924 73.7796 59.1472 90.0703Z" fill="#005FFF"/>
<path d="M-1.64724 121.5L59.1472 121.5C58.5924 137.791 45.1944 150.82 28.75 150.82C12.3055 150.82 -1.09244 137.791 -1.64724 121.5Z" fill="#005FFF"/>
<path d="M59.1472 121.5L-1.64724 121.5C-1.09244 105.209 12.3055 92.1796 28.75 92.1796C45.1944 92.1796 58.5924 105.209 59.1472 121.5Z" fill="#005FFF"/>
<path d="M13.5514 121.5L43.9486 121.5C43.6712 129.645 36.9746 136.163 28.75 136.163C20.5253 136.163 13.8288 129.645 13.5514 121.5Z" fill="#56B8FF"/>
<path d="M43.9486 121.5L13.5514 121.5C13.8288 113.355 20.5253 106.837 28.75 106.837C36.9746 106.837 43.6712 113.355 43.9486 121.5Z" fill="#A9C9FF"/>
<path d="M43.9486 182.27L13.5514 182.27C13.8288 174.124 20.5253 167.607 28.75 167.607C36.9746 167.612 43.6712 174.124 43.9486 182.27Z" fill="#A9C9FF"/>
<path d="M59.1666 182.25L120 182.25L120 121.5C86.4005 121.5 59.1666 148.697 59.1666 182.25Z" fill="#005FFF"/>
<path d="M79.7672 182.25L120 182.25L120 142.072C97.7788 142.072 79.7672 160.059 79.7672 182.25Z" fill="#DCE9FF"/>
<path d="M97.1266 182.25L120 182.25L120 159.408C107.366 159.408 97.1266 169.633 97.1266 182.25Z" fill="#A9C9FF"/>
<path d="M18.0043 41.1059L39.5004 19.6393C45.0728 25.5928 44.9462 34.9337 39.1354 40.7366C33.3149 46.5491 23.966 46.6706 18.0043 41.1059Z" fill="#56B8FF"/>
<path d="M39.4955 19.6442L17.9995 41.1108C12.4271 35.1573 12.5537 25.8164 18.3645 20.0136C24.185 14.201 33.5339 14.0795 39.4955 19.6442Z" fill="#A9C9FF"/>
</g>
</g>
</g>
<defs>
<clipPath id="clip0">
<rect width="365" height="243" fill="white" transform="translate(364 486) rotate(180)"/>
</clipPath>
<clipPath id="clip1">
<rect width="365" height="243" fill="white" transform="translate(120 243) rotate(180)"/>
</clipPath>
</defs>
</svg>
