<svg width="108" height="108" viewBox="0 0 108 108" fill="none" xmlns="http://www.w3.org/2000/svg">
<path fill-rule="evenodd" clip-rule="evenodd" d="M54.2841 4.00028C36.7343 3.92978 20.4278 13.0355 11.3025 28.002C2.17717 42.9686 1.56459 61.612 9.68784 77.1434L10.6895 79.0958C11.5105 80.6321 11.6822 82.4324 11.1664 84.0958C9.7371 87.8921 8.54244 91.7724 7.58919 95.7148C7.58919 97.7148 8.16155 98.8577 10.3079 98.8101C14.1095 97.9706 17.8534 96.889 21.5166 95.572C23.0943 95.1375 24.7719 95.238 26.2862 95.8577C27.6694 96.5244 30.4835 98.2386 30.5789 98.2386C48.9577 107.902 71.404 105.236 86.9988 91.5374C102.594 77.8383 108.099 55.9502 100.838 36.5205C93.5767 17.0907 75.0554 4.15294 54.2841 4.00028Z" stroke="#FFBA00" stroke-width="7" stroke-linecap="round" stroke-linejoin="round"/>
<path opacity="0.4" d="M30.4355 59.0002C33.197 59.0002 35.4355 56.7617 35.4355 54.0002C35.4355 51.2388 33.197 49.0002 30.4355 49.0002C27.6741 49.0002 25.4355 51.2388 25.4355 54.0002C25.4355 56.7617 27.6741 59.0002 30.4355 59.0002Z" fill="#FFBA00"/>
<path opacity="0.4" d="M54.2842 59.0002C57.0456 59.0002 59.2842 56.7617 59.2842 54.0002C59.2842 51.2388 57.0456 49.0002 54.2842 49.0002C51.5228 49.0002 49.2842 51.2388 49.2842 54.0002C49.2842 56.7617 51.5228 59.0002 54.2842 59.0002Z" fill="#FFBA00"/>
<path opacity="0.4" d="M78.1318 59.0002C80.8933 59.0002 83.1318 56.7617 83.1318 54.0002C83.1318 51.2388 80.8933 49.0002 78.1318 49.0002C75.3704 49.0002 73.1318 51.2388 73.1318 54.0002C73.1318 56.7617 75.3704 59.0002 78.1318 59.0002Z" fill="#FFBA00"/>
</svg>
