<svg width="98" height="108" viewBox="0 0 98 108" fill="none" xmlns="http://www.w3.org/2000/svg">
<path opacity="0.4" d="M4.4624 41.0211H93.582" stroke="#FFBA00" stroke-width="7" stroke-linecap="round" stroke-linejoin="round"/>
<path opacity="0.4" d="M26.7891 79.9809H26.8354M71.2099 60.5483H71.2562H71.2099ZM49.0226 60.5483H49.069H49.0226ZM26.7891 60.5483H26.8354H26.7891ZM71.2099 79.9809H71.2562H71.2099ZM49.0226 79.9809H49.069H49.0226Z" stroke="#FFBA00" stroke-width="7" stroke-linecap="round" stroke-linejoin="round"/>
<path d="M69.2183 4V20.4539" stroke="#FFBA00" stroke-width="7" stroke-linecap="round" stroke-linejoin="round"/>
<path d="M28.8276 4V20.4539" stroke="#FFBA00" stroke-width="7" stroke-linecap="round" stroke-linejoin="round"/>
<path fill-rule="evenodd" clip-rule="evenodd" d="M70.1912 11.8962H27.8548C13.1714 11.8962 4 20.0758 4 35.1113V80.3594C4 95.6313 13.1714 104 27.8548 104H70.1449C84.8747 104 93.9999 95.7731 93.9999 80.7377V35.1113C94.046 20.0758 84.921 11.8962 70.1912 11.8962Z" stroke="#FFBA00" stroke-width="7" stroke-linecap="round" stroke-linejoin="round"/>
</svg>
