<svg width="108" height="83" viewBox="0 0 108 83" fill="none" xmlns="http://www.w3.org/2000/svg">
<path opacity="0.4" d="M81.5591 36.8837C89.3716 36.8837 95.7092 30.5506 95.7092 22.7381C95.7092 14.9256 89.3716 8.59241 81.5591 8.59241" stroke="#FFBA00" stroke-width="7" stroke-linecap="round" stroke-linejoin="round"/>
<path d="M88.0645 52.2563C90.3975 52.4172 92.7171 52.748 95.001 53.262C98.1742 53.8832 101.991 55.1838 103.35 58.0308C104.217 59.8543 104.217 61.9773 103.35 63.8053C101.996 66.6523 98.1742 67.9484 95.001 68.601" stroke="#FFBA00" stroke-width="7" stroke-linecap="round" stroke-linejoin="round"/>
<path opacity="0.4" d="M26.4397 36.8837C18.6272 36.8837 12.2896 30.5506 12.2896 22.7381C12.2896 14.9256 18.6272 8.59241 26.4397 8.59241" stroke="#FFBA00" stroke-width="7" stroke-linecap="round" stroke-linejoin="round"/>
<path d="M19.9345 52.2563C17.6015 52.4172 15.2819 52.748 12.998 53.262C9.82475 53.8832 6.00788 55.1838 4.65365 58.0308C3.78212 59.8543 3.78212 61.9773 4.65365 63.8053C6.00341 66.6523 9.82475 67.9484 12.998 68.601" stroke="#FFBA00" stroke-width="7" stroke-linecap="round" stroke-linejoin="round"/>
<path fill-rule="evenodd" clip-rule="evenodd" d="M53.9766 55.3024C69.8073 55.3024 83.3317 57.698 83.3317 67.2848C83.3317 76.8672 69.8966 79.3522 53.9766 79.3522C38.1415 79.3522 24.6216 76.9566 24.6216 67.3698C24.6216 57.7829 38.0566 55.3024 53.9766 55.3024Z" stroke="#FFBA00" stroke-width="7" stroke-linecap="round" stroke-linejoin="round"/>
<path opacity="0.4" fill-rule="evenodd" clip-rule="evenodd" d="M53.9768 41.6279C43.5362 41.6279 35.165 33.2567 35.165 22.8117C35.165 12.3712 43.5362 4 53.9768 4C64.4173 4 72.7885 12.3712 72.7885 22.8117C72.7885 33.2567 64.4173 41.6279 53.9768 41.6279Z" stroke="#FFBA00" stroke-width="7" stroke-linecap="round" stroke-linejoin="round"/>
</svg>
