<svg width="89" height="108" viewBox="0 0 89 108" fill="none" xmlns="http://www.w3.org/2000/svg">
<path fill-rule="evenodd" clip-rule="evenodd" d="M42.3333 86.4762L11.4762 103.381C9.01249 104.661 5.97727 103.755 4.61905 101.333C4.2261 100.583 4.0141 99.7515 4 98.9048V24C4 9.71428 13.7619 4 27.8095 4H60.8095C74.4286 4 84.619 9.33333 84.619 23.0476V98.9048C84.619 100.256 84.0822 101.552 83.1267 102.508C82.1711 103.463 80.8751 104 79.5238 104C78.6618 103.986 77.8146 103.775 77.0476 103.381L46 86.4762C44.8559 85.8581 43.4774 85.8581 42.3333 86.4762Z" stroke="#FFBA00" stroke-width="7" stroke-linecap="round" stroke-linejoin="round"/>
<path opacity="0.4" d="M25.1904 38.0476H63.1428" stroke="#FFBA00" stroke-width="7" stroke-linecap="round" stroke-linejoin="round"/>
</svg>
