<svg width="108" height="108" viewBox="0 0 108 108" fill="none" xmlns="http://www.w3.org/2000/svg">
<path opacity="0.4" d="M50.3261 4.20453H30.5122C14.217 4.20453 4 15.741 4 32.0733V76.1313C4 92.4636 14.1693 104 30.5122 104H77.2728C93.621 104 103.79 92.4636 103.79 76.1313V54.7859" stroke="#FFBA00" stroke-width="7" stroke-linecap="round" stroke-linejoin="round"/>
<path fill-rule="evenodd" clip-rule="evenodd" d="M36.2054 47.2976L75.8068 7.69623C80.7404 2.76792 88.737 2.76792 93.6706 7.69623L100.12 14.1454C105.053 19.079 105.053 27.0809 100.12 32.0092L60.3277 71.8013C58.1709 73.9581 55.2457 75.1717 52.1933 75.1717H32.3423L32.8404 55.1405C32.9146 52.1941 34.1175 49.3855 36.2054 47.2976Z" stroke="#FFBA00" stroke-width="7" stroke-linecap="round" stroke-linejoin="round"/>
<path d="M69.7891 13.8148L93.9855 38.0112" stroke="#FFBA00" stroke-width="7" stroke-linecap="round" stroke-linejoin="round"/>
</svg>
